<?xml version="1.0" encoding="utf-8"?>
<!-- Generator: Adobe Illustrator 23.0.1, SVG Export Plug-In . SVG Version: 6.00 Build 0)  -->
<svg version="1.1" xmlns="http://www.w3.org/2000/svg" xmlns:xlink="http://www.w3.org/1999/xlink" x="0px" y="0px"
	 viewBox="0 0 2000 500" style="enable-background:new 0 0 2000 500;" xml:space="preserve">
<style type="text/css">
	.st0{fill:#D8D8E4;}
	.st1{fill:#FFFFFF;}
	.st2{fill:#FF5D5D;}
	.st3{fill:#FEDA9B;}
	.st4{fill:#FFC66C;}
</style>
<g id="Capa_1">
	<path class="st0" d="M348.7,370.1c11.9,0,21.5-9.6,21.5-21.5V227c0-10.8-8.7-19.5-19.5-19.5h-134l13.5,31.8h77.5
		c10.8,0,19.5,8.7,19.5,19.5l0.1,89.9C327.2,360.5,336.8,370.1,348.7,370.1L348.7,370.1"/>
	<path class="st1" d="M300.8,129.9H185.5c-5.4,0-9.8,4.4-9.8,9.8v189.5c0,5.4,4.4,9.8,9.8,9.8H334c5.4,0,9.8-4.4,9.8-9.8V172.9
		L300.8,129.9z"/>
	<rect x="206.8" y="156.2" class="st2" width="105.5" height="31.2"/>
	<path class="st3" d="M343.8,172.9h-29.5c-7.4,0-13.4-6-13.4-13.4v-29.5L343.8,172.9z"/>
	<g>
		<path class="st4" d="M327.2,348.7v-89.9c0-10.8-8.9-19.5-19.6-19.5H230l-16.9-39.9c-3.1-7.2-10.1-11.9-18-11.9h-65.3v163.1
			c0,10.8,8.7,19.5,19.5,19.5h198.2l0,0C336.3,369.6,327.2,360.2,327.2,348.7z"/>
		<path class="st4" d="M327.2,348.7v-89.9c0-10.8-8.9-19.5-19.6-19.5H230l-16.9-39.9c-3.1-7.2-10.1-11.9-18-11.9h-65.3v163.1
			c0,10.8,8.7,19.5,19.5,19.5h198.2l0,0C336.3,369.6,327.2,360.2,327.2,348.7z"/>
	</g>
	<path class="st1" d="M278.6,269.5H178.4c-7.4,0-13.3,6-13.3,13.3v43.6c0,7.4,6,13.3,13.3,13.3h100.3c7.4,0,13.3-6,13.3-13.3v-43.6
		C292,275.5,286,269.5,278.6,269.5z"/>
	<path d="M206.8,175.3c2.7,0,4.9-2.2,4.9-4.9v-9.3h65.8c2.7,0,4.9-2.2,4.9-4.9s-2.2-4.9-4.9-4.9h-70.7c-2.7,0-4.9,2.2-4.9,4.9v14.2
		C201.9,173.1,204.1,175.3,206.8,175.3z"/>
	<path d="M278.6,264.6H178.4c-10.1,0-18.2,8.2-18.2,18.2v43.6c0,10.1,8.2,18.2,18.2,18.2h100.3c10.1,0,18.2-8.2,18.2-18.2v-43.6
		C296.9,272.8,288.7,264.6,278.6,264.6z M287.1,326.5c0,4.7-3.8,8.5-8.5,8.5H178.4c-4.7,0-8.5-3.8-8.5-8.5v-43.6
		c0-4.7,3.8-8.5,8.5-8.5h100.3c4.7,0,8.5,3.8,8.5,8.5V326.5L287.1,326.5z"/>
	<path d="M266.1,215.8h46.2c2.7,0,4.9-2.2,4.9-4.9s-2.2-4.9-4.9-4.9h-46.2c-2.7,0-4.9,2.2-4.9,4.9S263.4,215.8,266.1,215.8z"/>
	<path d="M243.7,215.8c1.3,0,2.5-0.5,3.5-1.4c0.9-0.9,1.4-2.2,1.4-3.5s-0.5-2.5-1.4-3.5c-0.9-0.9-2.2-1.4-3.5-1.4s-2.5,0.5-3.5,1.4
		s-1.4,2.2-1.4,3.5c0,1.3,0.5,2.5,1.4,3.5C241.1,215.3,242.4,215.8,243.7,215.8z"/>
	<path d="M258.3,299.8h-43c-2.7,0-4.9,2.2-4.9,4.9s2.2,4.9,4.9,4.9h43c2.7,0,4.9-2.2,4.9-4.9S261,299.8,258.3,299.8z"/>
	<path d="M195.1,299.8c-1.3,0-2.5,0.5-3.5,1.4c-0.9,0.9-1.4,2.2-1.4,3.5s0.5,2.5,1.4,3.5c0.9,0.9,2.2,1.4,3.5,1.4
		c1.3,0,2.5-0.5,3.5-1.4c0.9-0.9,1.4-2.2,1.4-3.5s-0.5-2.5-1.4-3.5C197.6,300.3,196.4,299.8,195.1,299.8z"/>
	<path d="M350.6,202.6h-2v-29.8c0,0,0,0,0,0c0-1.3-0.5-2.5-1.4-3.5l-43-43c-0.9-0.9-2.2-1.4-3.5-1.4c0,0,0,0,0,0H185.5
		c-8.1,0-14.6,6.6-14.6,14.6v43h-41c-2.7,0-4.9,2.2-4.9,4.9v163.1c0,13.5,11,24.4,24.4,24.4h198.2c0.1,0,0.2,0,0.3,0
		c0.2,0,0.5,0,0.7,0c14.5,0,26.3-11.8,26.3-26.3V227C375,213.6,364,202.6,350.6,202.6z M314.2,168c-4.7,0-8.5-3.8-8.5-8.5v-17.8
		L332,168H314.2z M180.7,139.6c0-2.7,2.2-4.9,4.9-4.9h110.4v24.7c0,7.7,4.8,14.3,11.5,17v6.2h-78.9c-2.7,0-4.9,2.2-4.9,4.9
		s2.2,4.9,4.9,4.9h83.8c2.7,0,4.9-2.2,4.9-4.9v-9.8h21.7v151.4c0,2.7-2.2,4.9-4.9,4.9h-1.9v-75.2c0-13.4-11-24.4-24.5-24.4h-74.3
		l-15.6-36.9c-3.8-9-12.7-14.9-22.5-14.9h-14.5V139.6z M149.4,365.2c-8.1,0-14.6-6.6-14.6-14.6V192.4h60.4c5.9,0,11.2,3.5,13.5,8.9
		l16.9,39.9c0.8,1.8,2.5,3,4.5,3h77.5c8.1,0,14.7,6.6,14.8,14.6v89.9c0,6.3,2.2,12,5.9,16.6L149.4,365.2L149.4,365.2z M365.2,348.7
		c0,9.1-7.4,16.6-16.6,16.6c-9.1,0-16.6-7.4-16.6-16.6v-4.9h1.9c8.1,0,14.6-6.6,14.6-14.6V212.4h2c8.1,0,14.6,6.6,14.6,14.6V348.7z"
		/>
</g>
<g id="Layer_2">
	<g>
		<path d="M566,240.8h-24.9v-10.9h5l-2.3-6.3h-21.2l-2.6,6.3h5.9v10.9h-24.6v-10.9h5.7l17.9-40.5h-8.6v-10.9h21.4l22.5,51.5h6V240.8
			z M540.3,214.3l-6.5-17.6h-0.6l-7,17.6H540.3z"/>
		<path d="M634,206.8h-3.9l-11.7,34h-9.2l-11.2-25.9h-0.6l-10.2,25.9h-8.7l-12-34h-3.9v-9.3h23v9.3h-6l5.3,16.9h0.6l10.2-26.2h7.4
			l11.8,25.8h0.6l3.6-16.5h-5.7v-9.3H634V206.8z"/>
		<path d="M678,227.1c-0.3,3.8-2.2,7.2-5.7,10.2c-3.5,2.9-8.3,4.4-14.5,4.4c-6.5,0-11.8-1.8-16-5.5c-4.2-3.6-6.3-9.1-6.3-16.3
			c0-6.7,1.9-12.2,5.7-16.7c3.8-4.4,9.1-6.7,16-6.7c6,0,10.9,1.7,14.6,5.2c3.7,3.5,5.6,8,5.7,13.6c0,2.1-0.2,4.2-0.7,6.2h-28.4
			c0.7,6.8,4.1,10.3,10.2,10.3c3.3,0,5.6-0.8,6.8-2.4c1.2-1.6,1.9-3,2.2-4.3L678,227.1z M664.8,214.5c0.3-2.2-0.2-4.2-1.4-6.1
			c-1.2-1.9-3.2-2.9-6.2-2.9c-2.6,0-4.5,0.8-6,2.5c-1.4,1.7-2.3,3.8-2.7,6.5H664.8z"/>
		<path d="M721.7,227.5c0,4.8-1.9,8.4-5.7,10.7c-3.8,2.3-8.8,3.5-14.8,3.5c-3.1,0-6.3-0.3-9.5-1s-6.2-1.7-9.1-3.2l1.7-12.1l9.6,1.1
			v5.4c1.2,0.4,2.4,0.6,3.6,0.7c1.3,0.1,2.2,0.1,2.9,0.1c2.4,0,4.4-0.4,6.1-1.2c1.7-0.8,2.6-1.9,2.6-3.5c0-1.9-1.3-3.1-3.9-3.6
			c-2.6-0.6-5.7-1.2-9.1-1.7s-6.5-1.8-9.1-3.6c-2.6-1.8-3.9-4.8-3.9-9.1c0-5.3,2.1-8.9,6.2-10.7s8.4-2.7,12.8-2.7
			c5.8,0,11.2,1.3,16.2,3.9l1.1,11l-9.6,1.1l-0.8-6c-2.1-0.7-4.4-1.1-6.8-1.1c-1.6,0-3,0.3-4.1,1c-1.1,0.7-1.7,1.7-1.7,3.1
			c0,1.9,1.3,3.1,3.8,3.7c2.5,0.6,5.5,1.2,8.8,1.8c3.4,0.6,6.3,1.7,8.8,3.5C720.4,220.4,721.7,223.4,721.7,227.5z"/>
		<path d="M772.3,219.2c0,6.8-2.2,12.3-6.7,16.4c-4.5,4.1-10.2,6.1-17.1,6.1c-6.7,0-12.1-1.9-16.3-5.8c-4.2-3.9-6.3-9.3-6.3-16.3
			c0-6.3,1.9-11.8,5.8-16.3c3.8-4.5,9.7-6.8,17.5-6.8c7.8,0,13.6,2.3,17.4,6.8C770.3,207.8,772.3,213.1,772.3,219.2z M759.5,218.8
			c0-4.4-1-7.6-3.1-9.7c-2-2-4.5-3.1-7.5-3.1c-3.2,0-5.7,1.1-7.5,3.4c-1.8,2.3-2.7,5.5-2.7,9.6c0,3.7,0.8,6.8,2.5,9.4
			c1.7,2.6,4.2,3.8,7.6,3.8c3.2,0,5.8-1.2,7.7-3.6C758.5,226.2,759.5,222.9,759.5,218.8z"/>
		<path d="M857.1,240.8H839v-24.4c0-3.7-0.6-6.4-1.9-8s-3.1-2.4-5.5-2.4c-2.9,0-5.1,1-6.4,2.9c-1.3,1.9-2,4.4-2,7.4v15.2h5.8v9.3
			h-18.1v-24.4c0-3.7-0.6-6.4-1.9-8s-3.1-2.4-5.5-2.4c-3,0-5.2,1-6.4,2.9s-1.9,4.4-1.9,7.4v15.2h8.3v9.3H777v-9.3h5.8v-24.6h-5.7
			v-9.4h18v6.5c2.8-4.9,7.1-7.4,13.2-7.4c3.1,0,6,0.8,8.6,2.3c2.6,1.5,4.4,3.9,5.5,7c2.6-6.2,7.3-9.3,14.1-9.3
			c3.9,0,7.4,1.2,10.4,3.6c3,2.4,4.5,6.2,4.5,11.3v19.9h5.8V240.8z"/>
		<path d="M902.7,227.1c-0.3,3.8-2.2,7.2-5.7,10.2c-3.5,2.9-8.3,4.4-14.5,4.4c-6.5,0-11.8-1.8-16-5.5c-4.2-3.6-6.3-9.1-6.3-16.3
			c0-6.7,1.9-12.2,5.7-16.7c3.8-4.4,9.1-6.7,16-6.7c6,0,10.9,1.7,14.6,5.2c3.7,3.5,5.6,8,5.7,13.6c0,2.1-0.2,4.2-0.7,6.2h-28.4
			c0.7,6.8,4.1,10.3,10.2,10.3c3.3,0,5.6-0.8,6.8-2.4c1.2-1.6,1.9-3,2.2-4.3L902.7,227.1z M889.6,214.5c0.3-2.2-0.2-4.2-1.4-6.1
			c-1.2-1.9-3.2-2.9-6.2-2.9c-2.6,0-4.5,0.8-6,2.5c-1.4,1.7-2.3,3.8-2.7,6.5H889.6z"/>
		<path d="M985.8,217.1h-3.1v23.6h-10l-1.2-6.5c-1.9,2.2-4.4,4-7.3,5.4c-3,1.4-6.5,2.1-10.5,2.1c-8.8,0-15.7-3-20.9-9.1
			c-5.2-6.1-7.7-13.6-7.7-22.6c0-9,2.7-16.6,8.2-23c5.4-6.4,13.4-9.6,24-9.6c5.1,0,9.6,0.7,13.8,2.2c4.1,1.5,7.2,3.2,9.3,5.3
			l1.7,13.5l-10.4,1l-1.7-7.3c-1.7-1.1-3.8-1.9-6.3-2.5c-2.5-0.6-4.8-0.9-7-0.9c-5.1,0-9.4,1.7-12.7,5.2c-3.4,3.5-5,8.8-5,15.9
			c0,6.9,1.6,12.1,4.8,15.5c3.2,3.4,7.3,5.1,12.3,5.1c4.2,0,7.6-1.1,10.1-3.4c2.5-2.2,3.7-5.4,3.7-9.5v-0.4h-12.2v-10.8h28.2V217.1z
			"/>
		<path d="M994.6,200.5c3.8-1.5,6.9-2.6,9.5-3.1c2.5-0.5,5.6-0.8,9.1-0.8c4.7,0,8.7,1.2,12.1,3.6c3.4,2.4,5.1,6.1,5.1,11v18.8
			c0,2.2,1,3.4,3,3.4c0.6,0,1.2-0.1,1.8-0.3l0.1,6.5c-2.5,1.3-5.1,2-7.8,2c-5.7,0-8.9-2.8-9.5-8.5v-0.1c-1.2,2.2-3,4.2-5.2,6
			c-2.3,1.8-5.2,2.7-8.7,2.7c-3.1,0-6.1-0.9-9-2.8s-4.3-5.1-4.3-9.6c0-5.3,2.1-8.8,6.4-10.6c4.3-1.7,8.8-2.6,13.8-2.6
			c2.8,0,5.1,0.1,7.1,0.4v-1.4c0-2.2-0.3-4.4-0.9-6.5c-0.6-2.1-2.7-3.2-6.2-3.2c-1.3,0-2.4,0.1-3.5,0.2c-1.1,0.2-2.1,0.5-3.1,1
			l-1.6,6.1l-9.9-1.1L994.6,200.5z M1017.9,223.1v-0.6c-1-0.1-2.1-0.3-3.1-0.4c-1.1-0.1-2.1-0.2-3.1-0.2c-2.2,0-4.1,0.4-5.8,1.2
			c-1.7,0.8-2.5,2.4-2.5,4.8c0,1.4,0.4,2.6,1.2,3.6c0.8,1,2.1,1.4,3.9,1.4c2.2,0,4.2-0.8,6.1-2.4
			C1016.5,229,1017.6,226.5,1017.9,223.1z"/>
		<path d="M1119.6,240.8h-18.1v-24.4c0-3.7-0.6-6.4-1.9-8s-3.1-2.4-5.5-2.4c-2.9,0-5.1,1-6.4,2.9c-1.3,1.9-2,4.4-2,7.4v15.2h5.8v9.3
			h-18.1v-24.4c0-3.7-0.6-6.4-1.9-8s-3.1-2.4-5.5-2.4c-3,0-5.2,1-6.4,2.9s-1.9,4.4-1.9,7.4v15.2h8.3v9.3h-26.4v-9.3h5.8v-24.6h-5.7
			v-9.4h18v6.5c2.8-4.9,7.1-7.4,13.2-7.4c3.1,0,6,0.8,8.6,2.3c2.6,1.5,4.4,3.9,5.5,7c2.6-6.2,7.3-9.3,14.1-9.3
			c3.9,0,7.4,1.2,10.4,3.6c3,2.4,4.5,6.2,4.5,11.3v19.9h5.8V240.8z"/>
		<path d="M1165.2,227.1c-0.3,3.8-2.2,7.2-5.7,10.2c-3.5,2.9-8.3,4.4-14.5,4.4c-6.5,0-11.8-1.8-16-5.5c-4.2-3.6-6.3-9.1-6.3-16.3
			c0-6.7,1.9-12.2,5.7-16.7c3.8-4.4,9.1-6.7,16-6.7c6,0,10.9,1.7,14.6,5.2c3.7,3.5,5.6,8,5.7,13.6c0,2.1-0.2,4.2-0.7,6.2h-28.4
			c0.7,6.8,4.1,10.3,10.2,10.3c3.3,0,5.6-0.8,6.8-2.4c1.2-1.6,1.9-3,2.2-4.3L1165.2,227.1z M1152,214.5c0.3-2.2-0.2-4.2-1.4-6.1
			c-1.2-1.9-3.2-2.9-6.2-2.9c-2.6,0-4.5,0.8-6,2.5c-1.4,1.7-2.3,3.8-2.7,6.5H1152z"/>
		<path d="M1255.4,189.3h-6.7v51.5l-7.2,0.1l-33.5-39.6h-0.4v28.6h8.6v10.9h-27.4v-10.9h6.7v-40.5h-7.8v-10.9h17l31.5,37.1h0.4
			v-26.1h-9v-10.9h27.7V189.3z"/>
		<path d="M1300.1,227.1c-0.3,3.8-2.2,7.2-5.7,10.2c-3.5,2.9-8.3,4.4-14.5,4.4c-6.5,0-11.8-1.8-16-5.5c-4.2-3.6-6.3-9.1-6.3-16.3
			c0-6.7,1.9-12.2,5.7-16.7c3.8-4.4,9.1-6.7,16-6.7c6,0,10.9,1.7,14.6,5.2c3.7,3.5,5.6,8,5.7,13.6c0,2.1-0.2,4.2-0.7,6.2h-28.4
			c0.7,6.8,4.1,10.3,10.2,10.3c3.3,0,5.6-0.8,6.8-2.4c1.2-1.6,1.9-3,2.2-4.3L1300.1,227.1z M1286.9,214.5c0.3-2.2-0.2-4.2-1.4-6.1
			c-1.2-1.9-3.2-2.9-6.2-2.9c-2.6,0-4.5,0.8-6,2.5c-1.4,1.7-2.3,3.8-2.7,6.5H1286.9z"/>
		<path d="M1341,227.3c-0.6,5-2.4,8.6-5.2,10.9c-2.8,2.3-6.5,3.5-10.9,3.5c-4.8,0-8.7-1.2-11.7-3.6c-3-2.4-4.5-5.8-4.5-10.3v-21.5
			h-6.1v-8.8h6.1v-13.2h12.4v13.2h15.6v8.8h-15.6v19.4c0,3.8,1.7,5.7,5.2,5.7c0.8,0,1.8-0.3,3.1-1c1.3-0.7,2.2-2.6,2.5-5.8
			L1341,227.3z"/>
		<path d="M1411.8,206.8h-3.9l-11.7,34h-9.2l-11.2-25.9h-0.6l-10.2,25.9h-8.7l-12-34h-3.9v-9.3h23v9.3h-6l5.3,16.9h0.6l10.2-26.2
			h7.4l11.8,25.8h0.6l3.6-16.5h-5.7v-9.3h20.7V206.8z"/>
		<path d="M1459.6,219.2c0,6.8-2.2,12.3-6.7,16.4c-4.5,4.1-10.2,6.1-17.1,6.1c-6.7,0-12.1-1.9-16.3-5.8c-4.2-3.9-6.3-9.3-6.3-16.3
			c0-6.3,1.9-11.8,5.8-16.3c3.8-4.5,9.7-6.8,17.5-6.8c7.8,0,13.6,2.3,17.4,6.8C1457.7,207.8,1459.6,213.1,1459.6,219.2z
			 M1446.8,218.8c0-4.4-1-7.6-3.1-9.7c-2-2-4.5-3.1-7.5-3.1c-3.2,0-5.7,1.1-7.5,3.4c-1.8,2.3-2.7,5.5-2.7,9.6c0,3.7,0.8,6.8,2.5,9.4
			c1.7,2.6,4.2,3.8,7.6,3.8c3.2,0,5.8-1.2,7.7-3.6C1445.9,226.2,1446.8,222.9,1446.8,218.8z"/>
		<path d="M1491.7,196.9c1.2,0,2.6,0.2,4.1,0.5c1.5,0.4,3,1,4.5,1.9l1.9,15.2l-9.4,1.1l-1.6-7.4c-1.3-0.8-2.4-1.2-3.4-1.2
			c-1.4,0-2.6,0.5-3.7,1.6c-1.1,1.1-1.6,2.7-1.6,4.8v18h7.7v9.3h-25.8v-9.3h5.8v-24.6h-6.2v-9.4h17.7v8.3c0.7-2.5,1.8-4.6,3.4-6.3
			C1486.5,197.7,1488.7,196.9,1491.7,196.9z"/>
		<path d="M1554.9,240.8h-22.2v-9.3h4l-7.5-8.5h-6.4v8.5h3.9v9.3h-22.1v-9.3h5.8v-47.3h-6.2v-9.4h18.6v39.5h7.2l6.3-7.3h-5.2v-9.4
			h21.7v9.4h-4.7l-9.3,10.6l12.3,14h3.7V240.8z"/>
		<path d="M1583.3,240.8h-23.9v-9.3h5.8v-24.6h-6.2v-9.4h18.6v34h5.8V240.8z M1564.6,189.8v-12.9h12.4v12.9H1564.6z"/>
		<path d="M1640.8,240.8h-23.9v-9.3h5.8v-15.1c0-3.7-0.6-6.4-1.9-8s-3.1-2.4-5.5-2.4c-2.9,0-5.2,0.9-6.8,2.7
			c-1.6,1.8-2.4,4.2-2.5,7.2v15.6h5.8v9.3h-23.9v-9.3h5.8v-24.6h-6.2v-9.4h18.6v6.6c2.9-5,7.5-7.5,13.9-7.5c4.1,0,7.6,1.2,10.7,3.6
			c3,2.4,4.5,6.2,4.5,11.3v19.9h5.8V240.8z"/>
		<path d="M1695.2,206.9h-5.8v31.7c0,6.9-2,12.6-5.9,16.9c-3.9,4.4-9.9,6.6-18,6.6c-4.5,0-8.8-0.9-12.9-2.7
			c-4.1-1.8-7.1-5.2-8.9-10.2l9.5-5.4c3.1,5.7,7.2,8.5,12.4,8.5c3.3,0,6.1-1.2,8.2-3.6c2.1-2.4,3.2-5.8,3.2-10.1v-5.7
			c-1.2,2.2-2.8,4-5.1,5.6c-2.2,1.5-5.3,2.3-9.1,2.3c-5.1,0-9.5-1.8-13.2-5.3c-3.8-3.5-5.7-8.7-5.7-15.6c0-6.5,1.7-12,5.2-16.5
			c3.5-4.5,8.2-6.8,14.3-6.8c3.4,0,6.2,0.7,8.4,2.1c2.2,1.4,4,3.2,5.2,5.5v-6.7h18.1V206.9z M1677,218.9v-1.1c0-3.6-0.9-6.4-2.7-8.4
			c-1.8-2-4.1-3-7-3c-2.8,0-5,1-6.9,3.1c-1.8,2-2.7,5.3-2.7,9.7c0,4.2,0.8,7.2,2.4,9c1.6,1.9,3.8,2.8,6.4,2.8c3.4,0,6-1.2,7.8-3.6
			C1676.1,224.9,1677,222.1,1677,218.9z"/>
	</g>
	<g>
		<path d="M531.9,327.3h-11.5v-3.8h3.7l-1.9-5.2h-12.6l-2.1,5.2h4.1v3.8h-11.4v-3.8h2.9l9.8-23.6h-4.8v-3.8h9.4l11.2,27.4h3.1V327.3
			z M520.9,315.1l-4.8-12.7h-0.3l-5,12.7H520.9z"/>
		<path d="M568.4,324.6c-1.2,1-2.7,1.8-4.6,2.4c-1.9,0.5-4,0.8-6.2,0.8c-4.5,0-8.2-1.5-11.1-4.5s-4.3-6.8-4.3-11.3
			c0-2.7,0.6-5.3,1.7-7.8c1.2-2.5,2.9-4.6,5.1-6.1c2.3-1.6,5-2.4,8.3-2.4c2.6,0,4.8,0.4,6.6,1.1c1.8,0.7,3.3,1.6,4.5,2.6l0.8,6.3
			l-3.6,0.4l-0.9-4.5c-0.9-0.6-2-1.1-3.2-1.5c-1.2-0.4-2.6-0.6-4.1-0.6c-3.2,0-5.8,1.1-7.7,3.4c-2,2.2-2.9,5.2-2.9,8.9
			c0,3.8,1,6.8,3,8.9c2,2.1,4.8,3.2,8.2,3.2c2.7,0,4.8-0.5,6.6-1.4l0.8-4.6l3.6,0.4L568.4,324.6z"/>
		<path d="M598.1,327.3h-7.8v-3.8c-1.5,2.9-3.9,4.3-7.2,4.3c-2.1,0-3.8-0.6-5.3-1.9s-2.2-3.3-2.2-6v-10.7H572v-3.3h7.7v12.6
			c0,2.2,0.4,3.7,1.3,4.6c0.8,0.9,2,1.3,3.4,1.3c1.7,0,3.1-0.6,4.2-1.9s1.6-2.7,1.6-4.2v-9.1h-4.2v-3.3h8.4V324h3.6V327.3z"/>
		<path d="M612.8,305.5c1.5,0,2.8,0.4,3.8,1.2l0.9,6l-3.3,0.4l-0.8-3.7c-0.5-0.2-1.1-0.3-1.7-0.3c-1.1,0-2,0.5-2.7,1.4
			s-1.1,2.1-1.1,3.6V324h4.6v3.3h-12.3V324h3.5v-14.9h-3.6v-3.3h7.5v3.9c0.4-1.2,1.1-2.2,1.9-3C610.4,305.9,611.5,305.5,612.8,305.5
			z"/>
		<path d="M623,307.5c1.3-0.8,2.6-1.3,3.9-1.6c1.3-0.3,2.6-0.5,4.2-0.5c2.4,0,4.4,0.6,5.8,1.8c1.4,1.2,2.1,3,2.1,5.5v9.9
			c0,1.4,0.6,2.1,1.7,2.1c0.4,0,0.9-0.1,1.3-0.2l0,2.5c-0.9,0.5-1.9,0.8-3.1,0.8c-2.6,0-4-1.4-4.1-4.3v0c-0.6,1.1-1.6,2.1-2.8,3
			s-2.7,1.3-4.4,1.3c-1.5,0-2.9-0.4-4.4-1.3c-1.5-0.9-2.2-2.5-2.2-4.7c0-2.7,1.1-4.5,3.2-5.3c2.1-0.8,4.4-1.3,6.8-1.3
			c1.5,0,2.7,0.1,3.7,0.2v-1.6c0-1.4-0.3-2.6-0.8-3.6c-0.5-1-1.8-1.5-3.6-1.5c-1.5,0-2.8,0.3-3.9,0.8l-0.8,3.5l-3.4-0.4L623,307.5z
			 M634.7,319v-1.2c-0.6-0.1-1.2-0.1-1.8-0.2c-0.6,0-1.3-0.1-1.9-0.1c-1.5,0-2.8,0.2-3.9,0.7c-1.2,0.5-1.7,1.5-1.7,3
			c0,1.2,0.4,2,1.1,2.5c0.7,0.5,1.5,0.8,2.5,0.8c1.4,0,2.7-0.5,3.8-1.4C633.9,322.1,634.6,320.8,634.7,319z"/>
		<path d="M660.9,321.3c-0.6,4.4-3,6.5-7.2,6.5c-2.2,0-3.9-0.6-5.2-1.8c-1.2-1.2-1.8-2.9-1.8-5v-11.9h-3.3v-3.2h3.3v-6.8h4.2v6.8
			h8.2v3.2h-8.2v11.3c0,2.6,1.1,3.8,3.3,3.8c0.7,0,1.4-0.2,2.1-0.7c0.7-0.5,1.2-1.5,1.5-3.2L660.9,321.3z"/>
		<path d="M682.2,321c-0.2,1.9-1.1,3.5-2.7,4.8c-1.6,1.3-3.8,2-6.5,2c-3.1,0-5.6-0.9-7.5-2.8c-1.9-1.9-2.9-4.5-2.9-8.1
			c0-3.3,0.9-6.1,2.7-8.3c1.8-2.2,4.3-3.3,7.4-3.3c2.9,0,5.2,0.9,6.9,2.7s2.5,4,2.5,6.6c0,0.9-0.1,1.8-0.3,2.7h-14.8
			c0.2,4.5,2.3,6.8,6.3,6.8c1.7,0,2.9-0.4,3.8-1.2c0.8-0.8,1.4-1.8,1.7-2.9L682.2,321z M677.6,314.7c0.1-1.4-0.2-2.8-1-4.1
			c-0.8-1.3-2.2-1.9-4.1-1.9c-1.8,0-3.1,0.6-4,1.8c-0.9,1.2-1.4,2.6-1.6,4.2H677.6z"/>
		<path d="M709.7,327.3H702v-4.2c-0.7,1.3-1.6,2.4-2.8,3.3c-1.2,0.9-2.8,1.4-4.8,1.4c-2.8,0-5-1-6.7-2.9c-1.7-1.9-2.5-4.5-2.5-7.8
			c0-2.9,0.8-5.6,2.3-8c1.5-2.4,4-3.6,7.4-3.6c3.3,0,5.7,1.3,7.1,3.8v-11.7h-4.9v-3.3h9.1V324h3.5V327.3z M702,317.4v-2.6
			c-0.1-1.8-0.7-3.2-1.8-4.3c-1.2-1.1-2.5-1.6-4.2-1.6c-2.1,0-3.7,0.8-4.7,2.3c-1.1,1.5-1.6,3.4-1.6,5.7c0,2.4,0.6,4.3,1.7,5.6
			c1.2,1.3,2.6,1.9,4.3,1.9c1.8,0,3.3-0.8,4.5-2.3C701.3,320.6,702,319,702,317.4z"/>
		<path d="M745.5,327.3h-22.8v-3.8h3.8v-23.6h-3.8v-3.8h13.1v3.8h-4.9v23.6h10.8l1-6.8l3.8,0.3L745.5,327.3z"/>
		<path d="M759.8,327.3h-11.2V324h3.5v-14.9h-3.6v-3.3h7.9V324h3.5V327.3z M751.8,300.8v-4.9h4.4v4.9H751.8z"/>
		<path d="M780.4,321c0,2.1-0.9,3.8-2.7,5c-1.8,1.2-4,1.8-6.7,1.8c-3.3,0-6.1-0.7-8.4-2.1l0.7-5.2l3.3,0.3l-0.1,2.8
			c0.6,0.3,1.3,0.5,2.1,0.7s1.5,0.2,2.2,0.2c1.4,0,2.6-0.3,3.7-0.8c1.1-0.5,1.7-1.3,1.7-2.4c0-1.1-0.4-1.8-1.3-2.2
			c-0.9-0.4-2-0.8-3.3-1c-1.3-0.2-2.6-0.5-4-0.8s-2.4-0.9-3.3-1.7c-0.9-0.8-1.3-2.1-1.3-3.7c0-2.4,0.9-4.1,2.7-5
			c1.8-0.9,3.7-1.4,5.7-1.4c1.5,0,2.9,0.2,4.2,0.6c1.3,0.4,2.5,0.8,3.5,1.4l0.5,5.2l-3.4,0.4l-0.5-3.4c-1.3-0.6-2.7-0.9-4.1-0.9
			c-1.2,0-2.2,0.2-2.9,0.7c-0.8,0.4-1.2,1.2-1.2,2.2c0,1,0.4,1.7,1.3,2.1c0.9,0.4,2,0.7,3.3,0.9s2.6,0.5,3.9,0.8
			c1.3,0.4,2.4,0.9,3.3,1.8S780.4,319.3,780.4,321z"/>
		<path d="M800.2,321.3c-0.6,4.4-3,6.5-7.2,6.5c-2.2,0-3.9-0.6-5.2-1.8c-1.2-1.2-1.8-2.9-1.8-5v-11.9h-3.3v-3.2h3.3v-6.8h4.2v6.8
			h8.2v3.2h-8.2v11.3c0,2.6,1.1,3.8,3.3,3.8c0.7,0,1.4-0.2,2.1-0.7c0.7-0.5,1.2-1.5,1.5-3.2L800.2,321.3z"/>
		<path d="M833.8,316.6c0,3.3-1,6-3,8.1s-4.7,3.1-8,3.1c-3.3,0-5.8-1-7.8-3c-1.9-2-2.9-4.7-2.9-8c0-3.1,0.9-5.8,2.7-8.1
			c1.8-2.2,4.5-3.4,8.2-3.4s6.3,1.1,8.1,3.3C832.9,310.9,833.8,313.6,833.8,316.6z M829.4,316.5c0-2.4-0.6-4.2-1.8-5.6
			c-1.2-1.4-2.7-2.1-4.7-2.1c-2.1,0-3.7,0.7-4.8,2.2c-1.1,1.5-1.7,3.3-1.7,5.6c0,2.2,0.5,4,1.6,5.5c1.1,1.5,2.7,2.3,4.8,2.3
			c2.1,0,3.7-0.7,4.8-2.2C828.8,320.7,829.4,318.8,829.4,316.5z"/>
		<path d="M847.9,293.8c1,0,1.9,0.1,2.9,0.3c0.9,0.2,1.8,0.7,2.6,1.3l0.9,5.2l-3.4,0.4l-0.9-3.6c-0.7-0.2-1.4-0.3-2.3-0.3
			c-2.3,0-3.4,1.5-3.4,4.4v4.3h5.5v3.2h-5.5v15h4.5v3.3h-12.2V324h3.5v-15h-3v-3.2h3v-3.8c0-2.4,0.7-4.4,2.2-6
			C843.8,294.6,845.7,293.8,847.9,293.8z"/>
		<path d="M893.6,314.7h-2.2v12.6h-3.4l-0.5-4c-0.9,1.3-2.2,2.4-3.8,3.2c-1.6,0.8-3.6,1.3-5.8,1.3c-4.3,0-7.8-1.5-10.4-4.6
			c-2.6-3.1-4-6.8-4-11.3c0-4.5,1.4-8.3,4.2-11.5c2.8-3.2,6.5-4.8,11.3-4.8c2.5,0,4.7,0.4,6.6,1.1c1.9,0.7,3.5,1.6,4.6,2.6l0.9,6.1
			l-3.6,0.4l-0.9-4.2c-0.9-0.5-1.9-1-3.2-1.4s-2.7-0.6-4.4-0.6c-3.2,0-5.8,1.1-7.8,3.3c-2,2.2-3,5.2-3,8.9c0,3.7,1,6.7,2.9,8.9
			s4.4,3.3,7.6,3.3c2.7,0,4.7-0.7,6.2-2.1c1.5-1.4,2.2-3.1,2.2-5.1v-2H880v-3.8h13.6V314.7z"/>
		<path d="M898.6,307.5c1.3-0.8,2.6-1.3,3.9-1.6c1.3-0.3,2.6-0.5,4.2-0.5c2.4,0,4.4,0.6,5.8,1.8c1.4,1.2,2.1,3,2.1,5.5v9.9
			c0,1.4,0.6,2.1,1.7,2.1c0.4,0,0.9-0.1,1.3-0.2l0,2.5c-0.9,0.5-1.9,0.8-3.1,0.8c-2.6,0-4-1.4-4.1-4.3v0c-0.6,1.1-1.6,2.1-2.8,3
			s-2.7,1.3-4.4,1.3c-1.5,0-2.9-0.4-4.4-1.3c-1.5-0.9-2.2-2.5-2.2-4.7c0-2.7,1.1-4.5,3.2-5.3c2.1-0.8,4.4-1.3,6.8-1.3
			c1.5,0,2.7,0.1,3.7,0.2v-1.6c0-1.4-0.3-2.6-0.8-3.6c-0.5-1-1.8-1.5-3.6-1.5c-1.5,0-2.8,0.3-3.9,0.8l-0.8,3.5l-3.4-0.4L898.6,307.5
			z M910.3,319v-1.2c-0.6-0.1-1.2-0.1-1.8-0.2c-0.6,0-1.3-0.1-1.9-0.1c-1.5,0-2.8,0.2-3.9,0.7c-1.2,0.5-1.7,1.5-1.7,3
			c0,1.2,0.4,2,1.1,2.5c0.7,0.5,1.5,0.8,2.5,0.8c1.4,0,2.7-0.5,3.8-1.4C909.6,322.1,910.2,320.8,910.3,319z"/>
		<path d="M959.5,327.3h-9.9V324h2.2v-9.3c0-2.2-0.4-3.7-1.2-4.6c-0.8-0.9-1.9-1.4-3.3-1.4c-1.9,0-3.2,0.7-4.2,2
			c-0.9,1.3-1.4,2.7-1.4,4.1v9.2h3.5v3.3h-9.9V324h2.2v-9.3c0-2.2-0.4-3.8-1.2-4.7c-0.8-0.9-1.9-1.3-3.2-1.3c-1.8,0-3.2,0.7-4.1,2
			c-0.9,1.3-1.4,2.7-1.4,4v9.3h4v3.3h-11.7V324h3.5v-14.9h-3.5v-3.3h7.7v3.8c0.7-1.2,1.6-2.3,2.7-3c1.2-0.8,2.6-1.2,4.2-1.2
			c1.6,0,3.1,0.4,4.3,1.2c1.2,0.8,2.1,2.1,2.6,3.8c0.6-1.5,1.6-2.7,2.8-3.6s2.8-1.4,4.6-1.4c2,0,3.7,0.6,5.1,1.9
			c1.4,1.3,2.1,3.3,2.1,6V324h3.5V327.3z"/>
		<path d="M981.2,321c-0.2,1.9-1.1,3.5-2.7,4.8c-1.6,1.3-3.8,2-6.5,2c-3.1,0-5.6-0.9-7.5-2.8c-1.9-1.9-2.9-4.5-2.9-8.1
			c0-3.3,0.9-6.1,2.7-8.3c1.8-2.2,4.3-3.3,7.4-3.3c2.9,0,5.2,0.9,6.9,2.7s2.5,4,2.5,6.6c0,0.9-0.1,1.8-0.3,2.7H966
			c0.2,4.5,2.3,6.8,6.3,6.8c1.7,0,2.9-0.4,3.8-1.2c0.8-0.8,1.4-1.8,1.7-2.9L981.2,321z M976.7,314.7c0.1-1.4-0.2-2.8-1-4.1
			c-0.8-1.3-2.2-1.9-4.1-1.9c-1.8,0-3.1,0.6-4,1.8c-0.9,1.2-1.4,2.6-1.6,4.2H976.7z"/>
		<path d="M1027.3,299.9h-3.7v27.4h-2.6l-17.7-23.2h-0.2v19.4h4.8v3.8h-12.4v-3.8h3.6v-23.6h-4v-3.8h7.2l17.2,22.5h0.2v-18.7h-4.7
			v-3.8h12.5V299.9z"/>
		<path d="M1048.9,321c-0.2,1.9-1.1,3.5-2.7,4.8c-1.6,1.3-3.8,2-6.5,2c-3.1,0-5.6-0.9-7.5-2.8c-1.9-1.9-2.9-4.5-2.9-8.1
			c0-3.3,0.9-6.1,2.7-8.3c1.8-2.2,4.3-3.3,7.4-3.3c2.9,0,5.2,0.9,6.9,2.7s2.5,4,2.5,6.6c0,0.9-0.1,1.8-0.3,2.7h-14.8
			c0.2,4.5,2.3,6.8,6.3,6.8c1.7,0,2.9-0.4,3.8-1.2c0.8-0.8,1.4-1.8,1.7-2.9L1048.9,321z M1044.4,314.7c0.1-1.4-0.2-2.8-1-4.1
			c-0.8-1.3-2.2-1.9-4.1-1.9c-1.8,0-3.1,0.6-4,1.8c-0.9,1.2-1.4,2.6-1.6,4.2H1044.4z"/>
		<path d="M1068.6,321.3c-0.6,4.4-3,6.5-7.2,6.5c-2.2,0-3.9-0.6-5.2-1.8c-1.2-1.2-1.8-2.9-1.8-5v-11.9h-3.3v-3.2h3.3v-6.8h4.2v6.8
			h8.2v3.2h-8.2v11.3c0,2.6,1.1,3.8,3.3,3.8c0.7,0,1.4-0.2,2.1-0.7c0.7-0.5,1.2-1.5,1.5-3.2L1068.6,321.3z"/>
		<path d="M1104.6,309.2h-2.3l-6.2,18.1h-3.2l-6.2-15.3h-0.2l-6,15.3h-3l-6.4-18.1h-2.2v-3.3h10.5v3.3h-3.7l3.9,12h0.2l6-15.3h2.7
			l6.4,15.3h0.3l3.3-12h-3.6v-3.3h9.8V309.2z"/>
		<path d="M1127.7,316.6c0,3.3-1,6-3,8.1s-4.7,3.1-8,3.1c-3.3,0-5.8-1-7.8-3c-1.9-2-2.9-4.7-2.9-8c0-3.1,0.9-5.8,2.7-8.1
			c1.8-2.2,4.5-3.4,8.2-3.4s6.3,1.1,8.1,3.3C1126.8,310.9,1127.7,313.6,1127.7,316.6z M1123.3,316.5c0-2.4-0.6-4.2-1.8-5.6
			c-1.2-1.4-2.7-2.1-4.7-2.1c-2.1,0-3.7,0.7-4.8,2.2c-1.1,1.5-1.7,3.3-1.7,5.6c0,2.2,0.5,4,1.6,5.5c1.1,1.5,2.7,2.3,4.8,2.3
			c2.1,0,3.7-0.7,4.8-2.2C1122.8,320.7,1123.3,318.8,1123.3,316.5z"/>
		<path d="M1143.3,305.5c1.5,0,2.8,0.4,3.8,1.2l0.9,6l-3.3,0.4l-0.8-3.7c-0.5-0.2-1.1-0.3-1.7-0.3c-1.1,0-2,0.5-2.7,1.4
			s-1.1,2.1-1.1,3.6V324h4.6v3.3h-12.3V324h3.5v-14.9h-3.6v-3.3h7.5v3.9c0.4-1.2,1.1-2.2,1.9-3
			C1140.9,305.9,1142,305.5,1143.3,305.5z"/>
		<path d="M1174.2,327.3h-10.4V324h2.9l-5.2-6.4h-3.6v6.4h2.8v3.3h-10.4V324h3.5v-26.4h-3.6v-3.3h7.8v20.3h3.8l4.4-5.4h-3.1v-3.3
			h10.2v3.3h-3l-5.4,6.5l6.8,8.4h2.7V327.3z"/>
		<path d="M1211.8,305.8c0,3.4-1,5.9-3.1,7.6c-2.1,1.7-4.6,2.6-7.7,2.6h-5.7v7.5h5.2v3.8h-13.3v-3.8h3.8v-23.6h-3.8v-3.8h13.6
			c3.9,0,6.7,0.9,8.4,2.8S1211.8,303.1,1211.8,305.8z M1207.1,305.9c0-1.9-0.5-3.3-1.6-4.4c-1.1-1.1-2.8-1.6-5.3-1.6h-4.9v12.4h5
			C1204.9,312.3,1207.1,310.1,1207.1,305.9z"/>
		<path d="M1227.1,305.5c1.5,0,2.8,0.4,3.8,1.2l0.9,6l-3.3,0.4l-0.8-3.7c-0.5-0.2-1.1-0.3-1.7-0.3c-1.1,0-2,0.5-2.7,1.4
			s-1.1,2.1-1.1,3.6V324h4.6v3.3h-12.3V324h3.5v-14.9h-3.6v-3.3h7.5v3.9c0.4-1.2,1.1-2.2,1.9-3
			C1224.7,305.9,1225.8,305.5,1227.1,305.5z"/>
		<path d="M1256.7,316.6c0,3.3-1,6-3,8.1s-4.7,3.1-8,3.1c-3.3,0-5.8-1-7.8-3c-1.9-2-2.9-4.7-2.9-8c0-3.1,0.9-5.8,2.7-8.1
			c1.8-2.2,4.5-3.4,8.2-3.4s6.3,1.1,8.1,3.3C1255.8,310.9,1256.7,313.6,1256.7,316.6z M1252.3,316.5c0-2.4-0.6-4.2-1.8-5.6
			c-1.2-1.4-2.7-2.1-4.7-2.1c-2.1,0-3.7,0.7-4.8,2.2c-1.1,1.5-1.7,3.3-1.7,5.6c0,2.2,0.5,4,1.6,5.5c1.1,1.5,2.7,2.3,4.8,2.3
			c2.1,0,3.7-0.7,4.8-2.2C1251.7,320.7,1252.3,318.8,1252.3,316.5z"/>
		<path d="M1284.1,309.2h-3.3v17.6c0,3.4-0.9,6.1-2.8,8.2c-1.9,2-4.6,3.1-8.1,3.1c-2.2,0-4.3-0.5-6.1-1.5s-3.1-2.6-3.8-4.9l3.3-1.7
			c0.6,1.6,1.5,2.7,2.8,3.5c1.2,0.7,2.6,1.1,4,1.1c1.9,0,3.5-0.7,4.8-2s1.9-3.3,1.9-5.8v-3.6c-0.6,1.2-1.6,2.3-2.7,3.1
			s-2.8,1.3-4.8,1.3c-2.6,0-4.7-0.9-6.6-2.7c-1.8-1.8-2.7-4.4-2.7-7.8c0-2.9,0.8-5.6,2.4-8c1.6-2.4,4-3.6,7.2-3.6
			c3.3,0,5.7,1.3,7.1,3.8v-3.4h7.5V309.2z M1276.6,317.6v-2.8c0-1.8-0.6-3.2-1.7-4.3c-1.2-1.1-2.5-1.6-4.2-1.6
			c-2.1,0-3.7,0.8-4.7,2.3s-1.5,3.4-1.5,5.6c0,2.5,0.6,4.3,1.7,5.5c1.1,1.2,2.5,1.8,4.1,1.8c1.9,0,3.5-0.7,4.6-2
			C1275.9,320.7,1276.5,319.2,1276.6,317.6z"/>
		<path d="M1298.9,305.5c1.5,0,2.8,0.4,3.8,1.2l0.9,6l-3.3,0.4l-0.8-3.7c-0.5-0.2-1.1-0.3-1.7-0.3c-1.1,0-2,0.5-2.7,1.4
			s-1.1,2.1-1.1,3.6V324h4.6v3.3h-12.3V324h3.5v-14.9h-3.6v-3.3h7.5v3.9c0.4-1.2,1.1-2.2,1.9-3
			C1296.5,305.9,1297.6,305.5,1298.9,305.5z"/>
		<path d="M1309,307.5c1.3-0.8,2.6-1.3,3.9-1.6c1.3-0.3,2.6-0.5,4.2-0.5c2.4,0,4.4,0.6,5.8,1.8c1.4,1.2,2.1,3,2.1,5.5v9.9
			c0,1.4,0.6,2.1,1.7,2.1c0.4,0,0.9-0.1,1.3-0.2l0,2.5c-0.9,0.5-1.9,0.8-3.1,0.8c-2.6,0-4-1.4-4.1-4.3v0c-0.6,1.1-1.6,2.1-2.8,3
			s-2.7,1.3-4.4,1.3c-1.5,0-2.9-0.4-4.4-1.3c-1.5-0.9-2.2-2.5-2.2-4.7c0-2.7,1.1-4.5,3.2-5.3c2.1-0.8,4.4-1.3,6.8-1.3
			c1.5,0,2.7,0.1,3.7,0.2v-1.6c0-1.4-0.3-2.6-0.8-3.6c-0.5-1-1.8-1.5-3.6-1.5c-1.5,0-2.8,0.3-3.9,0.8l-0.8,3.5l-3.4-0.4L1309,307.5z
			 M1320.7,319v-1.2c-0.6-0.1-1.2-0.1-1.8-0.2c-0.6,0-1.3-0.1-1.9-0.1c-1.5,0-2.8,0.2-3.9,0.7c-1.2,0.5-1.7,1.5-1.7,3
			c0,1.2,0.4,2,1.1,2.5c0.7,0.5,1.5,0.8,2.5,0.8c1.4,0,2.7-0.5,3.8-1.4C1320,322.1,1320.6,320.8,1320.7,319z"/>
		<path d="M1369.9,327.3h-9.9V324h2.2v-9.3c0-2.2-0.4-3.7-1.2-4.6c-0.8-0.9-1.9-1.4-3.3-1.4c-1.9,0-3.2,0.7-4.2,2
			c-0.9,1.3-1.4,2.7-1.4,4.1v9.2h3.5v3.3h-9.9V324h2.2v-9.3c0-2.2-0.4-3.8-1.2-4.7c-0.8-0.9-1.9-1.3-3.2-1.3c-1.8,0-3.2,0.7-4.1,2
			c-0.9,1.3-1.4,2.7-1.4,4v9.3h4v3.3h-11.7V324h3.5v-14.9h-3.5v-3.3h7.7v3.8c0.7-1.2,1.6-2.3,2.7-3c1.2-0.8,2.6-1.2,4.2-1.2
			c1.6,0,3.1,0.4,4.3,1.2c1.2,0.8,2.1,2.1,2.6,3.8c0.6-1.5,1.6-2.7,2.8-3.6s2.8-1.4,4.6-1.4c2,0,3.7,0.6,5.1,1.9
			c1.4,1.3,2.1,3.3,2.1,6V324h3.5V327.3z"/>
		<path d="M1411.5,327.3h-9.9V324h2.2v-9.3c0-2.2-0.4-3.7-1.2-4.6c-0.8-0.9-1.9-1.4-3.3-1.4c-1.9,0-3.2,0.7-4.2,2
			c-0.9,1.3-1.4,2.7-1.4,4.1v9.2h3.5v3.3h-9.9V324h2.2v-9.3c0-2.2-0.4-3.8-1.2-4.7c-0.8-0.9-1.9-1.3-3.2-1.3c-1.8,0-3.2,0.7-4.1,2
			c-0.9,1.3-1.4,2.7-1.4,4v9.3h4v3.3h-11.7V324h3.5v-14.9h-3.5v-3.3h7.7v3.8c0.7-1.2,1.6-2.3,2.7-3c1.2-0.8,2.6-1.2,4.2-1.2
			c1.6,0,3.1,0.4,4.3,1.2c1.2,0.8,2.1,2.1,2.6,3.8c0.6-1.5,1.6-2.7,2.8-3.6s2.8-1.4,4.6-1.4c2,0,3.7,0.6,5.1,1.9
			c1.4,1.3,2.1,3.3,2.1,6V324h3.5V327.3z"/>
		<path d="M1424.7,327.3h-11.2V324h3.5v-14.9h-3.6v-3.3h7.9V324h3.5V327.3z M1416.7,300.8v-4.9h4.4v4.9H1416.7z"/>
		<path d="M1453,327.3h-11.1V324h3.5v-9.3c0-2.2-0.4-3.7-1.2-4.6s-1.9-1.4-3.3-1.4c-1.8,0-3.2,0.6-4.3,1.8c-1.1,1.2-1.6,2.6-1.7,4.1
			v9.4h3.5v3.3h-11.1V324h3.5v-14.9h-3.6v-3.3h7.8v3.6c1.5-2.7,3.9-4.1,7.3-4.1c2.1,0,3.8,0.6,5.3,1.9c1.4,1.3,2.2,3.3,2.2,6V324
			h3.5V327.3z"/>
		<path d="M1479.3,309.2h-3.3v17.6c0,3.4-0.9,6.1-2.8,8.2c-1.9,2-4.6,3.1-8.1,3.1c-2.2,0-4.3-0.5-6.1-1.5s-3.1-2.6-3.8-4.9l3.3-1.7
			c0.6,1.6,1.5,2.7,2.8,3.5c1.2,0.7,2.6,1.1,4,1.1c1.9,0,3.5-0.7,4.8-2s1.9-3.3,1.9-5.8v-3.6c-0.6,1.2-1.6,2.3-2.7,3.1
			s-2.8,1.3-4.8,1.3c-2.6,0-4.7-0.9-6.6-2.7c-1.8-1.8-2.7-4.4-2.7-7.8c0-2.9,0.8-5.6,2.4-8c1.6-2.4,4-3.6,7.2-3.6
			c3.3,0,5.7,1.3,7.1,3.8v-3.4h7.5V309.2z M1471.8,317.6v-2.8c0-1.8-0.6-3.2-1.7-4.3c-1.2-1.1-2.5-1.6-4.2-1.6
			c-2.1,0-3.7,0.8-4.7,2.3s-1.5,3.4-1.5,5.6c0,2.5,0.6,4.3,1.7,5.5c1.1,1.2,2.5,1.8,4.1,1.8c1.9,0,3.5-0.7,4.6-2
			C1471.1,320.7,1471.7,319.2,1471.8,317.6z"/>
		<path d="M1519.8,327.3h-6.8l-6.6-12.7h-6v8.9h3.9v3.8h-12.1v-3.8h3.8v-23.6h-3.8v-3.8h13.7c3.9,0,6.7,0.8,8.5,2.5s2.7,3.8,2.7,6.6
			c0,2-0.6,3.8-1.7,5.4c-1.1,1.5-2.7,2.6-4.8,3.2l5.2,9.8h3.9V327.3z M1512.6,305.2c0-1.9-0.6-3.2-1.7-4.1c-1.1-0.8-3-1.2-5.5-1.2
			h-4.8V311h4.9c2.6,0,4.5-0.5,5.5-1.5C1512.1,308.5,1512.6,307,1512.6,305.2z"/>
		<path d="M1541.2,321c-0.2,1.9-1.1,3.5-2.7,4.8c-1.6,1.3-3.8,2-6.5,2c-3.1,0-5.6-0.9-7.5-2.8c-1.9-1.9-2.9-4.5-2.9-8.1
			c0-3.3,0.9-6.1,2.7-8.3c1.8-2.2,4.3-3.3,7.4-3.3c2.9,0,5.2,0.9,6.9,2.7s2.5,4,2.5,6.6c0,0.9-0.1,1.8-0.3,2.7h-14.8
			c0.2,4.5,2.3,6.8,6.3,6.8c1.7,0,2.9-0.4,3.8-1.2c0.8-0.8,1.4-1.8,1.7-2.9L1541.2,321z M1536.6,314.7c0.1-1.4-0.2-2.8-1-4.1
			c-0.8-1.3-2.2-1.9-4.1-1.9c-1.8,0-3.1,0.6-4,1.8c-0.9,1.2-1.4,2.6-1.6,4.2H1536.6z"/>
		<path d="M1562.3,321c0,2.1-0.9,3.8-2.7,5c-1.8,1.2-4,1.8-6.7,1.8c-3.3,0-6.1-0.7-8.4-2.1l0.7-5.2l3.3,0.3l-0.1,2.8
			c0.6,0.3,1.3,0.5,2.1,0.7s1.5,0.2,2.2,0.2c1.4,0,2.6-0.3,3.7-0.8c1.1-0.5,1.7-1.3,1.7-2.4c0-1.1-0.4-1.8-1.3-2.2
			c-0.9-0.4-2-0.8-3.3-1c-1.3-0.2-2.6-0.5-4-0.8s-2.4-0.9-3.3-1.7c-0.9-0.8-1.3-2.1-1.3-3.7c0-2.4,0.9-4.1,2.7-5
			c1.8-0.9,3.7-1.4,5.7-1.4c1.5,0,2.9,0.2,4.2,0.6c1.3,0.4,2.5,0.8,3.5,1.4l0.5,5.2l-3.4,0.4l-0.5-3.4c-1.3-0.6-2.7-0.9-4.1-0.9
			c-1.2,0-2.2,0.2-2.9,0.7c-0.8,0.4-1.2,1.2-1.2,2.2c0,1,0.4,1.7,1.3,2.1c0.9,0.4,2,0.7,3.3,0.9s2.6,0.5,3.9,0.8
			c1.3,0.4,2.4,0.9,3.3,1.8S1562.3,319.3,1562.3,321z"/>
		<path d="M1587.2,316.6c0,3.3-1,6-3,8.1s-4.7,3.1-8,3.1c-3.3,0-5.8-1-7.8-3c-1.9-2-2.9-4.7-2.9-8c0-3.1,0.9-5.8,2.7-8.1
			c1.8-2.2,4.5-3.4,8.2-3.4s6.3,1.1,8.1,3.3C1586.3,310.9,1587.2,313.6,1587.2,316.6z M1582.8,316.5c0-2.4-0.6-4.2-1.8-5.6
			c-1.2-1.4-2.7-2.1-4.7-2.1c-2.1,0-3.7,0.7-4.8,2.2c-1.1,1.5-1.7,3.3-1.7,5.6c0,2.2,0.5,4,1.6,5.5c1.1,1.5,2.7,2.3,4.8,2.3
			c2.1,0,3.7-0.7,4.8-2.2C1582.2,320.7,1582.8,318.8,1582.8,316.5z"/>
		<path d="M1615.3,327.3h-7.8v-3.8c-1.5,2.9-3.9,4.3-7.2,4.3c-2.1,0-3.8-0.6-5.3-1.9s-2.2-3.3-2.2-6v-10.7h-3.5v-3.3h7.7v12.6
			c0,2.2,0.4,3.7,1.3,4.6c0.8,0.9,2,1.3,3.4,1.3c1.7,0,3.1-0.6,4.2-1.9s1.6-2.7,1.6-4.2v-9.1h-4.2v-3.3h8.4V324h3.6V327.3z"/>
		<path d="M1630,305.5c1.5,0,2.8,0.4,3.8,1.2l0.9,6l-3.3,0.4l-0.8-3.7c-0.5-0.2-1.1-0.3-1.7-0.3c-1.1,0-2,0.5-2.7,1.4
			s-1.1,2.1-1.1,3.6V324h4.6v3.3h-12.3V324h3.5v-14.9h-3.6v-3.3h7.5v3.9c0.4-1.2,1.1-2.2,1.9-3
			C1627.6,305.9,1628.7,305.5,1630,305.5z"/>
		<path d="M1657.4,319.9c-0.3,1.9-1.1,3.7-2.5,5.4c-1.4,1.7-3.7,2.5-6.8,2.5c-3,0-5.4-0.9-7.3-2.8c-1.8-1.9-2.8-4.6-2.8-8
			c0-3.2,0.9-6,2.7-8.2c1.8-2.2,4.4-3.3,7.6-3.3c1.3,0,2.6,0.2,3.9,0.5s2.4,0.9,3.6,1.7l0.9,5.6l-3.4,0.4l-0.8-3.6
			c-1.2-0.7-2.6-1.1-4.2-1.1c-2,0-3.5,0.7-4.5,2.2s-1.4,3.3-1.4,5.6c0,2.4,0.5,4.3,1.5,5.6c1,1.3,2.5,2,4.5,2c3,0,4.8-1.7,5.3-5.2
			L1657.4,319.9z"/>
		<path d="M1680,321c-0.2,1.9-1.1,3.5-2.7,4.8c-1.6,1.3-3.8,2-6.5,2c-3.1,0-5.6-0.9-7.5-2.8c-1.9-1.9-2.9-4.5-2.9-8.1
			c0-3.3,0.9-6.1,2.7-8.3c1.8-2.2,4.3-3.3,7.4-3.3c2.9,0,5.2,0.9,6.9,2.7s2.5,4,2.5,6.6c0,0.9-0.1,1.8-0.3,2.7h-14.8
			c0.2,4.5,2.3,6.8,6.3,6.8c1.7,0,2.9-0.4,3.8-1.2c0.8-0.8,1.4-1.8,1.7-2.9L1680,321z M1675.4,314.7c0.1-1.4-0.2-2.8-1-4.1
			c-0.8-1.3-2.2-1.9-4.1-1.9c-1.8,0-3.1,0.6-4,1.8c-0.9,1.2-1.4,2.6-1.6,4.2H1675.4z"/>
		<path d="M1701.1,321c0,2.1-0.9,3.8-2.7,5c-1.8,1.2-4,1.8-6.7,1.8c-3.3,0-6.1-0.7-8.4-2.1l0.7-5.2l3.3,0.3l-0.1,2.8
			c0.6,0.3,1.3,0.5,2.1,0.7s1.5,0.2,2.2,0.2c1.4,0,2.6-0.3,3.7-0.8c1.1-0.5,1.7-1.3,1.7-2.4c0-1.1-0.4-1.8-1.3-2.2
			c-0.9-0.4-2-0.8-3.3-1c-1.3-0.2-2.6-0.5-4-0.8s-2.4-0.9-3.3-1.7c-0.9-0.8-1.3-2.1-1.3-3.7c0-2.4,0.9-4.1,2.7-5
			c1.8-0.9,3.7-1.4,5.7-1.4c1.5,0,2.9,0.2,4.2,0.6c1.3,0.4,2.5,0.8,3.5,1.4l0.5,5.2l-3.4,0.4l-0.5-3.4c-1.3-0.6-2.7-0.9-4.1-0.9
			c-1.2,0-2.2,0.2-2.9,0.7c-0.8,0.4-1.2,1.2-1.2,2.2c0,1,0.4,1.7,1.3,2.1c0.9,0.4,2,0.7,3.3,0.9s2.6,0.5,3.9,0.8
			c1.3,0.4,2.4,0.9,3.3,1.8S1701.1,319.3,1701.1,321z"/>
	</g>
</g>
</svg>
