<?xml version="1.0" encoding="utf-8"?>
<!-- Generator: Adobe Illustrator 23.0.4, SVG Export Plug-In . SVG Version: 6.00 Build 0)  -->
<svg version="1.1" id="Layer_1" xmlns="http://www.w3.org/2000/svg" xmlns:xlink="http://www.w3.org/1999/xlink" x="0px" y="0px"
	 viewBox="0 0 2000 500" style="enable-background:new 0 0 2000 500;" xml:space="preserve">
<style type="text/css">
	.st0{fill:#24292E;}
	.st1{fill:#FFD33D;}
	.st2{fill:#FFFFFF;}
</style>
<rect class="st0" width="2000" height="500"/>
<g>
	<path class="st1" d="M214.9,250.8l30.8-86.2h12.8l-30.8,86.2H214.9z"/>
	<path class="st1" d="M272.5,250.8l30.8-86.2h12.8l-30.8,86.2H272.5z"/>
	<path class="st2" d="M430.6,226.9h-0.5c-0.5,3.4-2.2,6.2-5.2,8.4c-2.9,2.2-6.9,3.4-12,3.4c-3.8,0-7.4-0.7-10.8-2.2
		c-3.3-1.5-6.2-3.6-8.7-6.5s-4.4-6.5-5.9-10.8c-1.4-4.3-2.1-9.2-2.1-14.9c0-5.6,0.7-10.6,2.2-15c1.5-4.4,3.5-8,6.2-10.9
		c2.7-2.9,5.8-5.2,9.6-6.7c3.7-1.5,7.8-2.3,12.4-2.3c6,0,11.2,1.3,15.6,3.9c4.4,2.6,7.8,6.5,10.3,11.7l-11.9,6.8
		c-1-2.6-2.6-4.8-4.8-6.7c-2.2-1.8-5.2-2.7-9.1-2.7c-4.5,0-8.2,1.3-10.8,3.9c-2.7,2.6-4,6.8-4,12.4v10.8c0,5.6,1.3,9.7,4,12.3
		c2.7,2.7,6.3,4,10.8,4c1.8,0,3.5-0.2,5.1-0.6c1.6-0.4,3-1.1,4.2-1.9c1.2-0.9,2.2-1.9,2.8-3.1c0.7-1.2,1-2.7,1-4.3v-3.4h-12.5v-12.2
		h26.4v37.3h-12.3V226.9z"/>
	<path class="st2" d="M493.6,237.6c-2.6,0-4.7-0.8-6.4-2.4c-1.7-1.6-2.8-3.7-3.2-6.4h-0.6c-0.8,3.3-2.5,5.7-5.1,7.4
		c-2.6,1.7-5.9,2.5-9.7,2.5c-5.1,0-8.9-1.3-11.6-4c-2.7-2.7-4-6.2-4-10.6c0-5.3,1.9-9.2,5.8-11.8c3.9-2.6,9.1-3.9,15.8-3.9h8v-3.2
		c0-2.4-0.6-4.4-1.9-5.8c-1.3-1.4-3.4-2.2-6.4-2.2c-2.8,0-5.1,0.6-6.7,1.8c-1.7,1.2-3,2.6-4.1,4.1l-8.4-7.5c2-3,4.6-5.4,7.7-7.1
		c3.1-1.7,7.3-2.6,12.6-2.6c7.2,0,12.5,1.6,16.1,4.7c3.6,3.1,5.4,7.7,5.4,13.7v22.1h4.7v11H493.6z M473.9,228.8
		c2.4,0,4.4-0.5,6.1-1.5c1.7-1,2.5-2.7,2.5-5v-5.9h-6.9c-5.6,0-8.4,1.9-8.4,5.6v1.4c0,1.8,0.6,3.2,1.7,4
		C470.1,228.4,471.8,228.8,473.9,228.8z"/>
	<path class="st2" d="M510.9,237.6v-50.4h14.2v8.5h0.6c0.9-2.7,2.4-5,4.6-6.9c2.2-1.9,5.2-2.8,8.9-2.8c3.5,0,6.4,0.9,8.8,2.6
		c2.4,1.7,4.2,4.3,5.3,7.6h0.3c0.4-1.4,1.1-2.7,2.1-4c0.9-1.2,2.1-2.3,3.4-3.2c1.3-0.9,2.8-1.6,4.5-2.2c1.7-0.5,3.5-0.8,5.4-0.8
		c4.9,0,8.6,1.7,11.2,5.2c2.6,3.5,3.9,8.4,3.9,14.8v31.6h-14.2v-30.4c0-6.4-2.3-9.6-6.9-9.6c-2.1,0-4,0.6-5.8,1.8
		c-1.7,1.2-2.6,3.1-2.6,5.6v32.6h-14.2v-30.4c0-6.4-2.3-9.6-6.9-9.6c-1,0-2,0.1-3,0.4c-1,0.3-1.9,0.8-2.7,1.4
		c-0.8,0.6-1.4,1.4-1.9,2.4c-0.5,0.9-0.7,2-0.7,3.2v32.6H510.9z"/>
	<path class="st2" d="M617.8,238.7c-3.8,0-7.3-0.6-10.3-1.9c-3-1.2-5.6-3-7.6-5.3c-2.1-2.3-3.6-5-4.7-8.3c-1.1-3.3-1.6-6.9-1.6-10.9
		c0-4,0.5-7.6,1.5-10.8c1-3.2,2.5-6,4.6-8.3c2-2.3,4.5-4.1,7.4-5.3c2.9-1.2,6.3-1.9,10.1-1.9c4.2,0,7.7,0.7,10.7,2.1
		c3,1.4,5.4,3.3,7.3,5.7c1.9,2.4,3.3,5.1,4.1,8.2c0.9,3.1,1.3,6.4,1.3,9.7v4.2h-32.4v0.8c0,3.3,0.9,5.9,2.7,7.9
		c1.8,1.9,4.6,2.9,8.4,2.9c2.9,0,5.3-0.6,7.2-1.8c1.9-1.2,3.6-2.6,5.2-4.2l7.1,8.9c-2.2,2.6-5.2,4.7-8.8,6.2
		C626.5,238,622.4,238.7,617.8,238.7z M617.5,196.5c-2.9,0-5.1,0.9-6.8,2.8c-1.6,1.9-2.4,4.4-2.4,7.5v0.8h17.7v-0.9
		c0-3.1-0.7-5.6-2.1-7.4C622.5,197.4,620.4,196.5,617.5,196.5z"/>
	<path class="st2" d="M694.6,205.9l-6.4-13.4h-0.3v45.1h-13.7v-67h15.9l18.3,31.7l6.4,13.4h0.3v-45.1h13.7v67h-15.9L694.6,205.9z"/>
	<path class="st2" d="M763.9,238.7c-3.8,0-7.3-0.6-10.3-1.9c-3-1.2-5.6-3-7.6-5.3c-2.1-2.3-3.6-5-4.7-8.3c-1.1-3.3-1.6-6.9-1.6-10.9
		c0-4,0.5-7.6,1.5-10.8c1-3.2,2.5-6,4.6-8.3c2-2.3,4.5-4.1,7.4-5.3c2.9-1.2,6.3-1.9,10.1-1.9c4.2,0,7.7,0.7,10.7,2.1
		c3,1.4,5.4,3.3,7.3,5.7c1.9,2.4,3.3,5.1,4.1,8.2c0.9,3.1,1.3,6.4,1.3,9.7v4.2h-32.4v0.8c0,3.3,0.9,5.9,2.7,7.9
		c1.8,1.9,4.6,2.9,8.4,2.9c2.9,0,5.3-0.6,7.2-1.8c1.9-1.2,3.6-2.6,5.2-4.2l7.1,8.9c-2.2,2.6-5.2,4.7-8.8,6.2
		C772.6,238,768.5,238.7,763.9,238.7z M763.6,196.5c-2.9,0-5.1,0.9-6.8,2.8c-1.6,1.9-2.4,4.4-2.4,7.5v0.8h17.7v-0.9
		c0-3.1-0.7-5.6-2.1-7.4C768.6,197.4,766.5,196.5,763.6,196.5z"/>
	<path class="st2" d="M814.5,237.6c-4.9,0-8.7-1.2-11.2-3.7s-3.8-6.1-3.8-10.9v-24.7h-7.1v-11h3.6c1.9,0,3.2-0.5,3.9-1.4
		c0.7-0.9,1.1-2.3,1.1-4v-8.3h12.8v13.6h10v11h-10v28.3h9.2v11H814.5z"/>
	<path class="st2" d="M828.8,187.2h13.7l4.9,20.4l3.5,15.4h0.4l4-15.4l5.8-20.4h13l5.9,20.4l4.1,15.4h0.4l3.5-15.4l4.9-20.4h13.2
		L892,237.6h-14.9l-6.1-21.3l-3.6-13.1h-0.3l-3.5,13.1l-6.1,21.3h-14.6L828.8,187.2z"/>
	<path class="st2" d="M933.8,238.7c-3.7,0-7-0.6-9.9-1.8c-2.9-1.2-5.4-3-7.4-5.3c-2-2.3-3.6-5.1-4.7-8.4c-1.1-3.3-1.6-6.9-1.6-10.9
		c0-4,0.5-7.7,1.6-10.9c1.1-3.3,2.6-6,4.7-8.3c2-2.3,4.5-4,7.4-5.2c2.9-1.2,6.2-1.8,9.9-1.8c3.7,0,7,0.6,9.9,1.8
		c2.9,1.2,5.4,3,7.4,5.2c2,2.3,3.6,5,4.7,8.3c1.1,3.3,1.6,6.9,1.6,10.9c0,4-0.5,7.7-1.6,10.9c-1.1,3.3-2.6,6-4.7,8.4
		c-2,2.3-4.5,4.1-7.4,5.3C940.8,238.1,937.5,238.7,933.8,238.7z M933.8,227.5c2.8,0,5-0.9,6.5-2.6c1.5-1.7,2.3-4.2,2.3-7.4v-10.3
		c0-3.2-0.8-5.7-2.3-7.4c-1.5-1.7-3.7-2.6-6.5-2.6c-2.8,0-5,0.9-6.5,2.6s-2.3,4.2-2.3,7.4v10.3c0,3.2,0.8,5.7,2.3,7.4
		S931,227.5,933.8,227.5z"/>
	<path class="st2" d="M967.5,237.6v-50.4h14.2v10.9h0.5c0.3-1.4,0.7-2.8,1.3-4.1c0.6-1.3,1.5-2.5,2.5-3.5c1.1-1,2.3-1.8,3.8-2.4
		c1.5-0.6,3.2-0.9,5.2-0.9h2.5v13.2H994c-4.2,0-7.2,0.5-9.3,1.6c-2,1.1-3,3.1-3,6v29.5H967.5z"/>
	<path class="st2" d="M1006.3,166.5h14.2v42h0.6l6.2-9.3l10.1-12h15.7l-16.8,19.3l18.7,31.1h-16.9l-11.3-21.3l-6.3,7.1v14.2h-14.2
		V166.5z"/>
	<path class="st2" d="M1068.8,181.8c-2.9,0-5-0.7-6.3-2c-1.3-1.3-2-3-2-5v-2.1c0-2,0.7-3.7,2-5c1.3-1.3,3.4-2,6.3-2
		c2.9,0,5,0.7,6.3,2c1.3,1.3,2,3,2,5v2.1c0,2-0.7,3.7-2,5C1073.8,181.1,1071.7,181.8,1068.8,181.8z M1061.7,187.2h14.2v50.4h-14.2
		V187.2z"/>
	<path class="st2" d="M1089.1,237.6v-50.4h14.2v8.5h0.6c0.9-2.6,2.5-4.9,4.7-6.8c2.2-1.9,5.3-2.9,9.3-2.9c5.2,0,9.1,1.7,11.8,5.2
		c2.7,3.5,4,8.4,4,14.8v31.6h-14.2v-30.4c0-3.3-0.5-5.7-1.5-7.2c-1-1.6-2.8-2.4-5.5-2.4c-1.2,0-2.3,0.1-3.4,0.4
		c-1.1,0.3-2.1,0.8-2.9,1.4c-0.9,0.6-1.6,1.4-2.1,2.4c-0.5,0.9-0.8,2-0.8,3.2v32.6H1089.1z"/>
	<path class="st2" d="M1193,241.2c0,2.7-0.5,5.1-1.4,7.1c-0.9,2-2.4,3.8-4.6,5.2c-2.1,1.4-4.9,2.5-8.4,3.3
		c-3.5,0.7-7.8,1.1-12.9,1.1c-4.4,0-8-0.3-11.1-0.8c-3-0.5-5.5-1.3-7.4-2.3c-1.9-1-3.3-2.2-4.1-3.6c-0.9-1.4-1.3-3.1-1.3-4.9
		c0-2.8,0.8-5,2.5-6.6c1.7-1.6,4-2.6,6.9-3v-1.1c-2.4-0.4-4.3-1.5-5.5-3.1c-1.2-1.6-1.8-3.5-1.8-5.7c0-1.3,0.3-2.5,0.8-3.5
		c0.5-1,1.2-1.9,2.1-2.6c0.9-0.7,1.9-1.3,3-1.8c1.2-0.4,2.3-0.8,3.5-1.1v-0.4c-3.1-1.4-5.3-3.3-6.8-5.8c-1.5-2.5-2.2-5.3-2.2-8.6
		c0-5.1,1.8-9.2,5.3-12.3c3.6-3.1,9-4.7,16.3-4.7c3.3,0,6.2,0.3,8.5,1V185c0-2.7,0.7-4.6,2-5.8c1.3-1.2,3.2-1.8,5.6-1.8h8V188h-11.1
		v0.6c2.9,1.4,5.1,3.3,6.5,5.8c1.4,2.5,2.1,5.3,2.1,8.6c0,5.1-1.8,9.1-5.3,12.1c-3.6,3-9,4.6-16.3,4.6c-3.3,0-6.2-0.4-8.9-1.1
		c-1.5,1-2.2,2.3-2.2,4c0,1.2,0.5,2.2,1.4,2.8c0.9,0.7,2.5,1,4.7,1h14.6c6.1,0,10.6,1.3,13.4,3.8
		C1191.6,232.9,1193,236.5,1193,241.2z M1179.7,243.1c0-1.5-0.6-2.6-1.7-3.4s-3.2-1.2-6-1.2h-17.3c-0.6,0.6-1.1,1.4-1.4,2.2
		c-0.3,0.8-0.4,1.6-0.4,2.4c0,1.9,0.8,3.2,2.4,4.1c1.6,0.9,4.3,1.3,8.2,1.3h5.8c3.8,0,6.6-0.4,8.2-1.3
		C1178.9,246.3,1179.7,245,1179.7,243.1z M1165.9,210.3c2.8,0,4.9-0.6,6.3-1.8c1.4-1.2,2.1-2.9,2.1-5.1v-1.1c0-2.2-0.7-3.9-2.1-5.1
		c-1.4-1.2-3.5-1.8-6.3-1.8c-2.8,0-4.9,0.6-6.3,1.8c-1.4,1.2-2.1,2.9-2.1,5.1v1.1c0,2.2,0.7,3.9,2.1,5.1
		C1161,209.7,1163.1,210.3,1165.9,210.3z"/>
	<path class="st2" d="M1237.4,237.6h-14.6v-67h31.8c3.1,0,5.9,0.5,8.4,1.5c2.5,1,4.6,2.5,6.4,4.4c1.8,1.9,3.1,4.1,4.1,6.8
		c1,2.6,1.4,5.5,1.4,8.7c0,4.5-1,8.5-3,11.9c-2,3.4-5.1,5.9-9.2,7.4l13.2,26.3h-16.2l-11.7-24.6h-10.5V237.6z M1252.7,200.7
		c2.2,0,3.9-0.6,5.1-1.7c1.2-1.1,1.9-2.8,1.9-4.9v-4.2c0-2.2-0.6-3.8-1.9-4.9c-1.2-1.1-3-1.7-5.1-1.7h-15.4v17.5H1252.7z"/>
	<path class="st2" d="M1306.3,238.7c-3.8,0-7.3-0.6-10.3-1.9c-3-1.2-5.6-3-7.6-5.3c-2.1-2.3-3.6-5-4.7-8.3
		c-1.1-3.3-1.6-6.9-1.6-10.9c0-4,0.5-7.6,1.5-10.8c1-3.2,2.5-6,4.6-8.3c2-2.3,4.5-4.1,7.4-5.3c2.9-1.2,6.3-1.9,10.1-1.9
		c4.2,0,7.7,0.7,10.7,2.1c3,1.4,5.4,3.3,7.3,5.7c1.9,2.4,3.3,5.1,4.1,8.2c0.9,3.1,1.3,6.4,1.3,9.7v4.2h-32.4v0.8
		c0,3.3,0.9,5.9,2.7,7.9c1.8,1.9,4.6,2.9,8.4,2.9c2.9,0,5.3-0.6,7.2-1.8c1.9-1.2,3.6-2.6,5.2-4.2l7.1,8.9c-2.2,2.6-5.2,4.7-8.8,6.2
		C1315,238,1310.9,238.7,1306.3,238.7z M1306,196.5c-2.9,0-5.1,0.9-6.8,2.8c-1.6,1.9-2.4,4.4-2.4,7.5v0.8h17.7v-0.9
		c0-3.1-0.7-5.6-2.1-7.4C1311,197.4,1308.9,196.5,1306,196.5z"/>
	<path class="st2" d="M1356.3,238.7c-4.9,0-9-0.8-12.3-2.4c-3.3-1.6-6.3-3.8-8.9-6.7l8.4-8.4c1.8,2,3.8,3.6,6,4.7
		c2.2,1.2,4.6,1.7,7.4,1.7c2.8,0,4.8-0.4,5.9-1.3c1.1-0.9,1.6-2,1.6-3.5c0-2.4-1.7-3.8-5.1-4.2l-5.5-0.7c-11.3-1.4-17-6.6-17-15.6
		c0-2.4,0.5-4.7,1.4-6.7s2.2-3.7,3.9-5.2c1.7-1.4,3.7-2.6,6.1-3.4c2.4-0.8,5.1-1.2,8.1-1.2c2.6,0,4.9,0.2,7,0.5
		c2,0.4,3.8,0.9,5.4,1.5c1.6,0.7,3,1.5,4.3,2.5c1.3,1,2.6,2.1,3.9,3.3l-8.2,8.4c-1.6-1.6-3.4-2.9-5.4-3.8c-2-0.9-4.1-1.4-6.2-1.4
		c-2.4,0-4.2,0.4-5.2,1.2c-1,0.8-1.5,1.8-1.5,3.1c0,1.3,0.4,2.4,1.1,3.1c0.7,0.7,2.1,1.3,4.2,1.6l5.7,0.8
		c11.1,1.5,16.6,6.5,16.6,15.2c0,2.4-0.5,4.7-1.5,6.7c-1,2-2.5,3.8-4.4,5.3c-1.9,1.5-4.2,2.7-6.8,3.5
		C1362.5,238.3,1359.6,238.7,1356.3,238.7z"/>
	<path class="st2" d="M1408.1,238.7c-3.7,0-7-0.6-9.9-1.8c-2.9-1.2-5.4-3-7.4-5.3c-2-2.3-3.6-5.1-4.7-8.4c-1.1-3.3-1.6-6.9-1.6-10.9
		c0-4,0.5-7.7,1.6-10.9c1.1-3.3,2.6-6,4.7-8.3c2-2.3,4.5-4,7.4-5.2c2.9-1.2,6.2-1.8,9.9-1.8c3.7,0,7,0.6,9.9,1.8
		c2.9,1.2,5.4,3,7.4,5.2c2,2.3,3.6,5,4.7,8.3c1.1,3.3,1.6,6.9,1.6,10.9c0,4-0.5,7.7-1.6,10.9c-1.1,3.3-2.6,6-4.7,8.4
		c-2,2.3-4.5,4.1-7.4,5.3C1415.1,238.1,1411.8,238.7,1408.1,238.7z M1408.1,227.5c2.8,0,5-0.9,6.5-2.6c1.5-1.7,2.3-4.2,2.3-7.4
		v-10.3c0-3.2-0.8-5.7-2.3-7.4c-1.5-1.7-3.7-2.6-6.5-2.6c-2.8,0-5,0.9-6.5,2.6s-2.3,4.2-2.3,7.4v10.3c0,3.2,0.8,5.7,2.3,7.4
		S1405.2,227.5,1408.1,227.5z"/>
	<path class="st2" d="M1471.5,229.1h-0.5c-0.4,1.3-1,2.5-1.8,3.6c-0.7,1.2-1.7,2.2-2.8,3.1c-1.2,0.9-2.5,1.6-4.1,2.1
		c-1.6,0.5-3.4,0.8-5.4,0.8c-5.2,0-9.1-1.7-11.8-5.1c-2.7-3.4-4-8.3-4-14.7v-31.7h14.2v30.4c0,3.1,0.5,5.4,1.6,7.1
		c1.1,1.7,2.9,2.5,5.6,2.5c1.1,0,2.2-0.2,3.3-0.5c1.1-0.3,2-0.8,2.9-1.4c0.8-0.6,1.5-1.4,2-2.3c0.5-0.9,0.8-2,0.8-3.2v-32.7h14.2
		v50.4h-14.2V229.1z"/>
	<path class="st2" d="M1499,237.6v-50.4h14.2v10.9h0.5c0.3-1.4,0.7-2.8,1.3-4.1c0.6-1.3,1.5-2.5,2.5-3.5c1.1-1,2.3-1.8,3.8-2.4
		c1.5-0.6,3.2-0.9,5.2-0.9h2.5v13.2h-3.6c-4.2,0-7.2,0.5-9.3,1.6c-2,1.1-3,3.1-3,6v29.5H1499z"/>
	<path class="st2" d="M1557.6,238.7c-3.8,0-7.1-0.6-10.1-1.9c-2.9-1.2-5.4-3-7.4-5.3c-2-2.3-3.5-5-4.5-8.3c-1-3.3-1.5-6.9-1.5-10.9
		c0-4,0.5-7.7,1.5-10.9c1-3.2,2.5-6,4.5-8.3c2-2.3,4.4-4.1,7.4-5.3c2.9-1.2,6.3-1.8,10.1-1.8c5.1,0,9.4,1.2,12.8,3.5
		c3.4,2.3,5.9,5.5,7.3,9.7l-11.5,5c-0.4-1.9-1.4-3.6-2.8-4.9c-1.4-1.3-3.4-2-5.9-2c-2.9,0-5.1,0.9-6.5,2.8c-1.5,1.9-2.2,4.4-2.2,7.6
		v9.4c0,3.2,0.7,5.7,2.2,7.6c1.5,1.9,3.6,2.8,6.5,2.8c2.6,0,4.6-0.7,6.1-2.1c1.5-1.4,2.6-3.2,3.3-5.4l11,4.8
		c-1.7,4.8-4.2,8.3-7.7,10.6C1566.8,237.6,1562.6,238.7,1557.6,238.7z"/>
	<path class="st2" d="M1607.4,238.7c-3.8,0-7.3-0.6-10.3-1.9c-3-1.2-5.6-3-7.6-5.3c-2.1-2.3-3.6-5-4.7-8.3
		c-1.1-3.3-1.6-6.9-1.6-10.9c0-4,0.5-7.6,1.5-10.8c1-3.2,2.5-6,4.6-8.3c2-2.3,4.5-4.1,7.4-5.3c2.9-1.2,6.3-1.9,10.1-1.9
		c4.2,0,7.7,0.7,10.7,2.1c3,1.4,5.4,3.3,7.3,5.7c1.9,2.4,3.3,5.1,4.1,8.2c0.9,3.1,1.3,6.4,1.3,9.7v4.2h-32.4v0.8
		c0,3.3,0.9,5.9,2.7,7.9c1.8,1.9,4.6,2.9,8.4,2.9c2.9,0,5.3-0.6,7.2-1.8c1.9-1.2,3.6-2.6,5.2-4.2l7.1,8.9c-2.2,2.6-5.2,4.7-8.8,6.2
		C1616.2,238,1612,238.7,1607.4,238.7z M1607.2,196.5c-2.9,0-5.1,0.9-6.8,2.8c-1.6,1.9-2.4,4.4-2.4,7.5v0.8h17.7v-0.9
		c0-3.1-0.7-5.6-2.1-7.4C1612.2,197.4,1610,196.5,1607.2,196.5z"/>
	<path class="st2" d="M1657.5,238.7c-4.9,0-9-0.8-12.3-2.4c-3.3-1.6-6.3-3.8-8.9-6.7l8.4-8.4c1.8,2,3.8,3.6,6,4.7
		c2.2,1.2,4.6,1.7,7.4,1.7c2.8,0,4.8-0.4,5.9-1.3c1.1-0.9,1.6-2,1.6-3.5c0-2.4-1.7-3.8-5.1-4.2l-5.5-0.7c-11.3-1.4-17-6.6-17-15.6
		c0-2.4,0.5-4.7,1.4-6.7s2.2-3.7,3.9-5.2c1.7-1.4,3.7-2.6,6.1-3.4c2.4-0.8,5.1-1.2,8.1-1.2c2.6,0,4.9,0.2,7,0.5
		c2,0.4,3.8,0.9,5.4,1.5c1.6,0.7,3,1.5,4.3,2.5c1.3,1,2.6,2.1,3.9,3.3l-8.2,8.4c-1.6-1.6-3.4-2.9-5.4-3.8c-2-0.9-4.1-1.4-6.2-1.4
		c-2.4,0-4.2,0.4-5.2,1.2c-1,0.8-1.5,1.8-1.5,3.1c0,1.3,0.4,2.4,1.1,3.1c0.7,0.7,2.1,1.3,4.2,1.6l5.7,0.8
		c11.1,1.5,16.6,6.5,16.6,15.2c0,2.4-0.5,4.7-1.5,6.7c-1,2-2.5,3.8-4.4,5.3c-1.9,1.5-4.2,2.7-6.8,3.5
		C1663.7,238.3,1660.7,238.7,1657.5,238.7z"/>
</g>
<g>
	<path class="st2" d="M413.2,334.5l-3.4-9.9h-13.5l-3.4,9.9h-4.1l11.7-33.5h5.1l11.7,33.5H413.2z M403.2,304.7H403l-5.7,16.3h11.6
		L403.2,304.7z"/>
	<path class="st2" d="M446.2,335.1c-4.3,0-7.6-1.4-9.9-4.3c-2.4-2.9-3.6-7.2-3.6-12.8s1.2-10,3.6-13c2.4-3,5.7-4.5,9.9-4.5
		c2.8,0,5.2,0.6,7.1,1.9c1.9,1.3,3.4,3.1,4.4,5.4l-3.3,2c-0.7-1.7-1.7-3.1-3.1-4.2c-1.4-1-3.1-1.6-5.2-1.6c-1.4,0-2.7,0.3-3.9,0.8
		c-1.1,0.5-2.1,1.3-2.9,2.3c-0.8,1-1.4,2.2-1.8,3.6c-0.4,1.4-0.6,3-0.6,4.7v5c0,3.5,0.8,6.2,2.4,8.1c1.6,2,3.9,2.9,6.8,2.9
		c2.1,0,3.9-0.6,5.4-1.7c1.4-1.1,2.5-2.6,3.2-4.4l3.2,2c-1.1,2.4-2.6,4.2-4.6,5.6C451.4,334.4,449,335.1,446.2,335.1z"/>
	<path class="st2" d="M479,330.5h-0.2c-0.3,0.6-0.6,1.1-0.9,1.7c-0.4,0.6-0.8,1-1.4,1.5c-0.5,0.4-1.2,0.8-2,1
		c-0.8,0.3-1.7,0.4-2.7,0.4c-2.6,0-4.6-0.8-6.1-2.5c-1.5-1.6-2.3-4-2.3-7v-15.9h3.8V325c0,4.5,1.9,6.7,5.7,6.7
		c0.8,0,1.5-0.1,2.2-0.3c0.7-0.2,1.4-0.5,1.9-0.9c0.6-0.4,1-0.9,1.3-1.5c0.3-0.6,0.5-1.3,0.5-2.1v-17.2h3.8v24.8H479V330.5z"/>
	<path class="st2" d="M491,334.5v-24.8h3.8v4.6h0.2c0.4-1.2,1.2-2.2,2.4-3.2c1.2-0.9,2.7-1.4,4.8-1.4h1.5v3.8h-2.3
		c-2.1,0-3.7,0.4-4.9,1.2c-1.2,0.8-1.8,1.8-1.8,3v16.8H491z"/>
	<path class="st2" d="M526.5,334.5c-1.4,0-2.5-0.4-3.1-1.2c-0.6-0.8-1-1.7-1.2-2.9h-0.2c-0.5,1.5-1.4,2.7-2.7,3.5
		c-1.2,0.8-2.7,1.2-4.5,1.2c-2.6,0-4.7-0.7-6.1-2c-1.5-1.3-2.2-3.2-2.2-5.5c0-2.3,0.9-4.1,2.6-5.4c1.7-1.2,4.4-1.9,8-1.9h4.9v-2.4
		c0-1.8-0.5-3.1-1.4-4s-2.4-1.4-4.4-1.4c-1.5,0-2.8,0.3-3.8,1c-1,0.7-1.8,1.6-2.5,2.7l-2.3-2.2c0.7-1.3,1.7-2.5,3.2-3.4
		c1.5-0.9,3.3-1.4,5.6-1.4c3,0,5.3,0.7,7,2.2c1.7,1.5,2.5,3.5,2.5,6.1v13.6h2.8v3.4H526.5z M515.4,331.8c1,0,1.8-0.1,2.6-0.3
		c0.8-0.2,1.5-0.5,2.1-1c0.6-0.4,1-0.9,1.3-1.4c0.3-0.5,0.5-1.1,0.5-1.8v-4.1h-5.1c-2.2,0-3.8,0.3-4.8,1c-1,0.6-1.5,1.6-1.5,2.8v1
		c0,1.2,0.4,2.2,1.3,2.8C512.7,331.5,513.9,331.8,515.4,331.8z"/>
	<path class="st2" d="M539.6,334.5c-1.3,0-2.4-0.4-3-1.1c-0.7-0.8-1-1.7-1-2.9v-17.3h-4.1v-3.4h2.3c0.8,0,1.4-0.2,1.7-0.5
		c0.3-0.3,0.5-0.9,0.5-1.8v-4.6h3.5v6.9h5.4v3.4h-5.4v18h5v3.4H539.6z"/>
	<path class="st2" d="M560.1,335.1c-1.7,0-3.2-0.3-4.6-0.9c-1.4-0.6-2.5-1.5-3.5-2.6c-1-1.1-1.7-2.5-2.3-4.1
		c-0.5-1.6-0.8-3.4-0.8-5.4c0-2,0.3-3.7,0.8-5.3c0.5-1.6,1.3-3,2.3-4.1c1-1.1,2.1-2,3.5-2.6c1.4-0.6,2.9-0.9,4.6-0.9
		c1.7,0,3.2,0.3,4.5,0.9c1.3,0.6,2.4,1.4,3.4,2.5c0.9,1.1,1.6,2.3,2.1,3.8c0.5,1.5,0.7,3.1,0.7,4.8v1.8H553v1.2c0,1.1,0.2,2,0.5,3
		s0.8,1.7,1.4,2.4s1.4,1.2,2.3,1.6s1.9,0.6,3.1,0.6c1.6,0,2.9-0.4,4.1-1.1c1.2-0.7,2.1-1.8,2.7-3.2l2.7,2c-0.8,1.7-2,3.1-3.7,4.1
		C564.4,334.5,562.4,335.1,560.1,335.1z M560.1,312.4c-1.1,0-2,0.2-2.9,0.5c-0.9,0.4-1.6,0.9-2.2,1.6c-0.6,0.7-1.1,1.5-1.5,2.4
		c-0.4,0.9-0.5,1.9-0.5,3v0.3h13.7v-0.5c0-2.2-0.6-4-1.8-5.3C563.6,313,562,312.4,560.1,312.4z"/>
	<path class="st2" d="M592.9,330.5h-0.2c-1.5,3-3.9,4.6-7.2,4.6c-1.5,0-2.9-0.3-4.2-0.9c-1.2-0.6-2.3-1.5-3.2-2.6
		c-0.9-1.1-1.6-2.5-2-4.1c-0.5-1.6-0.7-3.4-0.7-5.4s0.2-3.8,0.7-5.4c0.5-1.6,1.1-3,2-4.1c0.9-1.1,1.9-2,3.2-2.6
		c1.2-0.6,2.6-0.9,4.2-0.9c1.7,0,3.2,0.4,4.4,1.1c1.2,0.7,2.2,1.9,2.8,3.4h0.2V299h3.8v35.5h-3.8V330.5z M586.6,331.7
		c0.9,0,1.7-0.1,2.5-0.3c0.8-0.2,1.5-0.6,2-1c0.6-0.4,1-1,1.4-1.6s0.5-1.3,0.5-2.1v-9.3c0-0.7-0.2-1.3-0.5-1.9s-0.8-1.1-1.4-1.5
		c-0.6-0.4-1.3-0.7-2-1c-0.8-0.2-1.6-0.4-2.5-0.4c-2.2,0-3.9,0.7-5.1,2c-1.2,1.4-1.9,3.2-1.9,5.4v4.2c0,2.2,0.6,4,1.9,5.4
		S584.4,331.7,586.6,331.7z"/>
	<path class="st2" d="M616.7,334.5V301h4v30h14.3v3.6H616.7z"/>
	<path class="st2" d="M642.2,303.9c-0.8,0-1.4-0.2-1.8-0.6c-0.4-0.4-0.6-0.9-0.6-1.6v-0.6c0-0.6,0.2-1.2,0.6-1.6
		c0.4-0.4,1-0.6,1.8-0.6c0.8,0,1.4,0.2,1.8,0.6c0.4,0.4,0.6,0.9,0.6,1.6v0.6c0,0.6-0.2,1.2-0.6,1.6
		C643.7,303.7,643.1,303.9,642.2,303.9z M640.3,309.7h3.8v24.8h-3.8V309.7z"/>
	<path class="st2" d="M659.8,335.1c-2.3,0-4.2-0.4-5.8-1.3c-1.6-0.9-2.9-2.1-4-3.5l2.7-2.2c1,1.2,2,2.2,3.2,2.8c1.2,0.7,2.6,1,4.1,1
		c1.6,0,2.9-0.4,3.8-1.1c0.9-0.7,1.4-1.7,1.4-3c0-1-0.3-1.8-0.9-2.5c-0.6-0.7-1.8-1.2-3.4-1.4l-2-0.3c-1.2-0.2-2.2-0.4-3.2-0.7
		s-1.8-0.8-2.5-1.3c-0.7-0.6-1.3-1.3-1.7-2.1c-0.4-0.8-0.6-1.8-0.6-3c0-1.2,0.2-2.3,0.7-3.2c0.4-0.9,1.1-1.7,1.8-2.3
		c0.8-0.6,1.7-1.1,2.8-1.4c1.1-0.3,2.3-0.5,3.5-0.5c2,0,3.7,0.4,5.1,1.1c1.4,0.7,2.6,1.7,3.6,2.9l-2.5,2.3c-0.5-0.8-1.3-1.5-2.4-2.1
		c-1.1-0.6-2.4-0.9-4-0.9s-2.8,0.3-3.6,1c-0.8,0.7-1.2,1.6-1.2,2.8c0,1.2,0.4,2.1,1.2,2.6c0.8,0.5,2,0.9,3.5,1.2l1.9,0.3
		c2.8,0.4,4.7,1.2,5.9,2.4c1.2,1.2,1.7,2.7,1.7,4.6c0,2.4-0.8,4.3-2.4,5.7C664.8,334.4,662.6,335.1,659.8,335.1z"/>
	<path class="st2" d="M680.8,334.5c-1.3,0-2.4-0.4-3-1.1c-0.7-0.8-1-1.7-1-2.9v-17.3h-4.1v-3.4h2.3c0.8,0,1.4-0.2,1.7-0.5
		c0.3-0.3,0.5-0.9,0.5-1.8v-4.6h3.5v6.9h5.4v3.4h-5.4v18h5v3.4H680.8z"/>
	<path class="st2" d="M712.9,335.1c-1.7,0-3.2-0.3-4.6-0.9c-1.4-0.6-2.6-1.5-3.5-2.6c-1-1.1-1.7-2.5-2.3-4.1
		c-0.5-1.6-0.8-3.4-0.8-5.4c0-2,0.3-3.7,0.8-5.3c0.5-1.6,1.3-3,2.3-4.1c1-1.1,2.2-2,3.5-2.6c1.4-0.6,2.9-0.9,4.6-0.9
		c1.7,0,3.2,0.3,4.5,0.9c1.4,0.6,2.5,1.5,3.5,2.6c1,1.1,1.8,2.5,2.3,4.1c0.5,1.6,0.8,3.4,0.8,5.3c0,2-0.3,3.8-0.8,5.4
		c-0.5,1.6-1.3,2.9-2.3,4.1c-1,1.1-2.2,2-3.5,2.6C716.1,334.8,714.6,335.1,712.9,335.1z M712.9,331.7c2.1,0,3.8-0.6,5.1-1.9
		c1.3-1.3,2-3.2,2-5.9v-3.6c0-2.6-0.7-4.6-2-5.9c-1.3-1.3-3-1.9-5.1-1.9c-2.1,0-3.8,0.6-5.1,1.9c-1.3,1.3-2,3.2-2,5.9v3.6
		c0,2.6,0.7,4.6,2,5.9C709.1,331,710.8,331.7,712.9,331.7z"/>
	<path class="st2" d="M731.5,313.1h-4v-3.4h4v-5c0-1.7,0.4-3.1,1.3-4.2c0.9-1.1,2.3-1.6,4.1-1.6h3.7v3.4h-5.3v7.3h5.3v3.4h-5.3v21.4
		h-3.8V313.1z"/>
	<path class="st2" d="M779.1,329.6h-0.1c-0.4,1.6-1.4,2.8-3,3.9c-1.6,1-3.7,1.5-6.3,1.5c-2,0-3.9-0.4-5.6-1.1
		c-1.7-0.8-3.2-1.9-4.4-3.3c-1.2-1.5-2.2-3.3-2.9-5.4c-0.7-2.2-1-4.6-1-7.5c0-2.8,0.3-5.3,1-7.4s1.6-4,2.9-5.4s2.8-2.6,4.5-3.3
		c1.8-0.8,3.7-1.2,5.9-1.2c3,0,5.5,0.7,7.5,2c2,1.3,3.6,3.1,4.7,5.3l-3.3,2c-0.8-1.8-1.9-3.2-3.4-4.2c-1.5-1-3.3-1.5-5.4-1.5
		c-1.5,0-2.8,0.3-4,0.8c-1.2,0.5-2.3,1.3-3.1,2.2c-0.9,1-1.6,2.1-2,3.5s-0.7,2.9-0.7,4.5v5.4c0,1.7,0.2,3.2,0.7,4.6
		c0.5,1.4,1.2,2.5,2,3.5c0.9,1,2,1.7,3.2,2.2c1.3,0.5,2.7,0.8,4.3,0.8c1.2,0,2.2-0.2,3.3-0.5c1-0.3,2-0.8,2.7-1.4
		c0.8-0.6,1.4-1.4,1.8-2.3c0.4-0.9,0.7-2,0.7-3.3v-3.3h-7.4v-3.6h11.3v17.2h-3.7V329.6z"/>
	<path class="st2" d="M808.4,334.5c-1.4,0-2.5-0.4-3.1-1.2c-0.6-0.8-1-1.7-1.2-2.9h-0.2c-0.5,1.5-1.4,2.7-2.7,3.5
		c-1.2,0.8-2.7,1.2-4.5,1.2c-2.6,0-4.7-0.7-6.1-2c-1.5-1.3-2.2-3.2-2.2-5.5c0-2.3,0.9-4.1,2.6-5.4c1.7-1.2,4.4-1.9,8-1.9h4.9v-2.4
		c0-1.8-0.5-3.1-1.4-4s-2.4-1.4-4.4-1.4c-1.5,0-2.8,0.3-3.8,1c-1,0.7-1.8,1.6-2.5,2.7l-2.3-2.2c0.7-1.3,1.7-2.5,3.2-3.4
		c1.5-0.9,3.3-1.4,5.6-1.4c3,0,5.3,0.7,7,2.2c1.7,1.5,2.5,3.5,2.5,6.1v13.6h2.8v3.4H808.4z M797.3,331.8c1,0,1.8-0.1,2.6-0.3
		c0.8-0.2,1.5-0.5,2.1-1c0.6-0.4,1-0.9,1.3-1.4c0.3-0.5,0.5-1.1,0.5-1.8v-4.1h-5.1c-2.2,0-3.8,0.3-4.8,1c-1,0.6-1.5,1.6-1.5,2.8v1
		c0,1.2,0.4,2.2,1.3,2.8C794.6,331.5,795.8,331.8,797.3,331.8z"/>
	<path class="st2" d="M816,334.5v-24.8h3.8v4h0.2c0.3-0.6,0.6-1.2,1-1.8c0.4-0.6,0.8-1,1.3-1.5c0.5-0.4,1.1-0.7,1.8-1
		c0.7-0.2,1.5-0.4,2.5-0.4c1.6,0,3.1,0.4,4.5,1.2c1.4,0.8,2.4,2.1,3.1,3.8h0.1c0.4-1.3,1.3-2.5,2.5-3.5c1.2-1,2.9-1.5,5-1.5
		c2.5,0,4.5,0.8,5.9,2.5c1.4,1.6,2.1,4,2.1,7v15.9h-3.8v-15.2c0-2.2-0.4-3.9-1.3-5c-0.9-1.1-2.2-1.7-4.1-1.7c-0.8,0-1.5,0.1-2.2,0.3
		c-0.7,0.2-1.3,0.5-1.8,0.9c-0.5,0.4-1,0.9-1.3,1.5c-0.3,0.6-0.5,1.3-0.5,2.1v17.2h-3.8v-15.2c0-2.2-0.4-3.9-1.3-5
		c-0.9-1.1-2.2-1.7-4-1.7c-0.8,0-1.5,0.1-2.2,0.3c-0.7,0.2-1.3,0.5-1.9,0.9c-0.5,0.4-1,0.9-1.3,1.5c-0.3,0.6-0.5,1.3-0.5,2.1v17.2
		H816z"/>
	<path class="st2" d="M867.2,335.1c-1.7,0-3.2-0.3-4.6-0.9c-1.4-0.6-2.5-1.5-3.5-2.6c-1-1.1-1.7-2.5-2.3-4.1
		c-0.5-1.6-0.8-3.4-0.8-5.4c0-2,0.3-3.7,0.8-5.3c0.5-1.6,1.3-3,2.3-4.1c1-1.1,2.1-2,3.5-2.6c1.4-0.6,2.9-0.9,4.6-0.9
		c1.7,0,3.2,0.3,4.5,0.9c1.3,0.6,2.4,1.4,3.4,2.5c0.9,1.1,1.6,2.3,2.1,3.8c0.5,1.5,0.7,3.1,0.7,4.8v1.8h-17.8v1.2c0,1.1,0.2,2,0.5,3
		s0.8,1.7,1.4,2.4s1.4,1.2,2.3,1.6s1.9,0.6,3.1,0.6c1.6,0,2.9-0.4,4.1-1.1c1.2-0.7,2.1-1.8,2.7-3.2l2.7,2c-0.8,1.7-2,3.1-3.7,4.1
		C871.6,334.5,869.5,335.1,867.2,335.1z M867.2,312.4c-1.1,0-2,0.2-2.9,0.5c-0.9,0.4-1.6,0.9-2.2,1.6c-0.6,0.7-1.1,1.5-1.5,2.4
		c-0.4,0.9-0.5,1.9-0.5,3v0.3h13.7v-0.5c0-2.2-0.6-4-1.8-5.3C870.8,313,869.2,312.4,867.2,312.4z"/>
	<path class="st2" d="M904.1,314l-4-7.4h-0.1v27.9H896V301h4.7l12.2,20.4l4,7.4h0.1V301h3.9v33.5h-4.7L904.1,314z"/>
	<path class="st2" d="M938.8,335.1c-1.7,0-3.2-0.3-4.6-0.9s-2.5-1.5-3.5-2.6c-1-1.1-1.7-2.5-2.3-4.1s-0.8-3.4-0.8-5.4
		c0-2,0.3-3.7,0.8-5.3c0.5-1.6,1.3-3,2.3-4.1c1-1.1,2.1-2,3.5-2.6s2.9-0.9,4.6-0.9c1.7,0,3.2,0.3,4.5,0.9c1.3,0.6,2.4,1.4,3.4,2.5
		c0.9,1.1,1.6,2.3,2.1,3.8c0.5,1.5,0.7,3.1,0.7,4.8v1.8h-17.8v1.2c0,1.1,0.2,2,0.5,3s0.8,1.7,1.4,2.4s1.4,1.2,2.3,1.6
		s1.9,0.6,3.1,0.6c1.6,0,2.9-0.4,4.1-1.1c1.2-0.7,2.1-1.8,2.7-3.2l2.7,2c-0.8,1.7-2,3.1-3.7,4.1
		C943.2,334.5,941.2,335.1,938.8,335.1z M938.8,312.4c-1.1,0-2,0.2-2.9,0.5c-0.9,0.4-1.6,0.9-2.2,1.6c-0.6,0.7-1.1,1.5-1.5,2.4
		c-0.4,0.9-0.5,1.9-0.5,3v0.3h13.7v-0.5c0-2.2-0.6-4-1.8-5.3C942.4,313,940.8,312.4,938.8,312.4z"/>
	<path class="st2" d="M961.3,334.5c-1.3,0-2.4-0.4-3-1.1c-0.7-0.8-1-1.7-1-2.9v-17.3h-4.1v-3.4h2.3c0.8,0,1.4-0.2,1.7-0.5
		c0.3-0.3,0.5-0.9,0.5-1.8v-4.6h3.5v6.9h5.4v3.4h-5.4v18h5v3.4H961.3z"/>
	<path class="st2" d="M970.1,309.7h3.7l2.6,10.7l2.6,10.8h0.1l3-10.8l3.1-10.7h3.4l3.2,10.7l3.1,10.8h0.1l2.5-10.8l2.7-10.7h3.6
		l-6.6,24.8h-4.8l-3.5-11.9l-2.2-7.5H987l-2.1,7.5l-3.5,11.9h-4.7L970.1,309.7z"/>
	<path class="st2" d="M1018.7,335.1c-1.7,0-3.2-0.3-4.6-0.9s-2.6-1.5-3.5-2.6c-1-1.1-1.7-2.5-2.3-4.1c-0.5-1.6-0.8-3.4-0.8-5.4
		c0-2,0.3-3.7,0.8-5.3c0.5-1.6,1.3-3,2.3-4.1c1-1.1,2.2-2,3.5-2.6s2.9-0.9,4.6-0.9c1.7,0,3.2,0.3,4.5,0.9s2.5,1.5,3.5,2.6
		c1,1.1,1.8,2.5,2.3,4.1c0.5,1.6,0.8,3.4,0.8,5.3c0,2-0.3,3.8-0.8,5.4s-1.3,2.9-2.3,4.1c-1,1.1-2.2,2-3.5,2.6
		S1020.4,335.1,1018.7,335.1z M1018.7,331.7c2.1,0,3.8-0.6,5.1-1.9c1.3-1.3,2-3.2,2-5.9v-3.6c0-2.6-0.7-4.6-2-5.9
		c-1.3-1.3-3-1.9-5.1-1.9c-2.1,0-3.8,0.6-5.1,1.9s-2,3.2-2,5.9v3.6c0,2.6,0.7,4.6,2,5.9C1014.9,331,1016.6,331.7,1018.7,331.7z"/>
	<path class="st2" d="M1036.2,334.5v-24.8h3.8v4.6h0.2c0.4-1.2,1.2-2.2,2.4-3.2c1.2-0.9,2.7-1.4,4.8-1.4h1.5v3.8h-2.3
		c-2.1,0-3.7,0.4-4.9,1.2s-1.8,1.8-1.8,3v16.8H1036.2z"/>
	<path class="st2" d="M1053.8,299h3.8v22.5h0.2l3.8-4.2l7-7.5h4.7l-9.2,9.8l10.1,15h-4.7l-8.2-12.6l-3.7,3.8v8.8h-3.8V299z"/>
	<path class="st2" d="M1090.8,334.5V301h13.3c3,0,5.3,0.9,6.9,2.6c1.6,1.7,2.4,4.1,2.4,7c0,3-0.8,5.3-2.4,7
		c-1.6,1.7-3.9,2.6-6.9,2.6h-9.3v14.3H1090.8z M1094.9,316.6h9.3c1.6,0,2.8-0.4,3.7-1.2c0.9-0.8,1.3-2,1.3-3.6v-2.5
		c0-1.5-0.4-2.7-1.3-3.6c-0.9-0.8-2.1-1.2-3.7-1.2h-9.3V316.6z"/>
	<path class="st2" d="M1119.1,334.5v-24.8h3.8v4.6h0.2c0.4-1.2,1.2-2.2,2.4-3.2c1.2-0.9,2.7-1.4,4.8-1.4h1.5v3.8h-2.3
		c-2.1,0-3.7,0.4-4.9,1.2s-1.8,1.8-1.8,3v16.8H1119.1z"/>
	<path class="st2" d="M1145.8,335.1c-1.7,0-3.2-0.3-4.6-0.9s-2.6-1.5-3.5-2.6c-1-1.1-1.7-2.5-2.3-4.1c-0.5-1.6-0.8-3.4-0.8-5.4
		c0-2,0.3-3.7,0.8-5.3c0.5-1.6,1.3-3,2.3-4.1c1-1.1,2.2-2,3.5-2.6s2.9-0.9,4.6-0.9c1.7,0,3.2,0.3,4.5,0.9s2.5,1.5,3.5,2.6
		c1,1.1,1.8,2.5,2.3,4.1c0.5,1.6,0.8,3.4,0.8,5.3c0,2-0.3,3.8-0.8,5.4s-1.3,2.9-2.3,4.1c-1,1.1-2.2,2-3.5,2.6
		S1147.5,335.1,1145.8,335.1z M1145.8,331.7c2.1,0,3.8-0.6,5.1-1.9c1.3-1.3,2-3.2,2-5.9v-3.6c0-2.6-0.7-4.6-2-5.9
		c-1.3-1.3-3-1.9-5.1-1.9c-2.1,0-3.8,0.6-5.1,1.9s-2,3.2-2,5.9v3.6c0,2.6,0.7,4.6,2,5.9C1142,331,1143.7,331.7,1145.8,331.7z"/>
	<path class="st2" d="M1184.2,337.3c0,2.6-1,4.4-3,5.6c-2,1.2-5,1.8-9,1.8c-3.9,0-6.7-0.5-8.4-1.6c-1.7-1.1-2.5-2.6-2.5-4.5
		c0-1.3,0.4-2.4,1.1-3.1c0.7-0.8,1.7-1.3,2.9-1.7v-0.5c-1.5-0.7-2.2-1.8-2.2-3.4c0-1.2,0.4-2.2,1.2-2.8c0.8-0.7,1.8-1.1,3.1-1.5
		v-0.2c-1.5-0.7-2.6-1.7-3.4-3c-0.8-1.3-1.2-2.8-1.2-4.6c0-1.3,0.2-2.4,0.7-3.5c0.4-1.1,1.1-2,1.9-2.7c0.8-0.8,1.8-1.3,2.9-1.8
		c1.1-0.4,2.4-0.6,3.8-0.6c1.8,0,3.3,0.3,4.7,1v-0.4c0-1,0.2-1.8,0.7-2.4s1.2-1,2.2-1h3.7v3.4h-4.7v1.6c0.9,0.8,1.6,1.7,2.1,2.8
		s0.7,2.3,0.7,3.6c0,1.3-0.2,2.4-0.7,3.5c-0.4,1.1-1.1,2-1.9,2.7c-0.8,0.8-1.8,1.3-3,1.8c-1.2,0.4-2.4,0.6-3.8,0.6
		c-0.8,0-1.6-0.1-2.4-0.2c-0.8,0.2-1.6,0.6-2.3,1c-0.7,0.4-1,1-1,1.8c0,0.7,0.4,1.2,1.1,1.5c0.7,0.3,1.6,0.4,2.7,0.4h5.3
		c3.1,0,5.3,0.6,6.7,1.7S1184.2,335.2,1184.2,337.3z M1180.6,337.5c0-1-0.4-1.8-1.1-2.4c-0.8-0.6-2.1-0.9-4-0.9h-8.3
		c-1.5,0.7-2.3,1.8-2.3,3.4c0,1.1,0.4,2,1.2,2.8c0.8,0.8,2.2,1.2,4.2,1.2h3.6c2.1,0,3.8-0.3,5-1
		C1180,339.9,1180.6,338.9,1180.6,337.5z M1172,323.2c1.6,0,2.9-0.4,3.9-1.2c1-0.8,1.4-2,1.4-3.6V317c0-1.6-0.5-2.9-1.4-3.6
		s-2.3-1.2-3.9-1.2c-1.6,0-2.9,0.4-3.9,1.2s-1.4,2-1.4,3.6v1.4c0,1.6,0.5,2.9,1.4,3.6C1169.1,322.8,1170.4,323.2,1172,323.2z"/>
	<path class="st2" d="M1188.7,334.5v-24.8h3.8v4.6h0.2c0.4-1.2,1.2-2.2,2.4-3.2c1.2-0.9,2.7-1.4,4.8-1.4h1.5v3.8h-2.3
		c-2.1,0-3.7,0.4-4.9,1.2s-1.8,1.8-1.8,3v16.8H1188.7z"/>
	<path class="st2" d="M1224.1,334.5c-1.4,0-2.5-0.4-3.1-1.2c-0.6-0.8-1-1.7-1.2-2.9h-0.2c-0.5,1.5-1.4,2.7-2.7,3.5
		c-1.2,0.8-2.7,1.2-4.5,1.2c-2.6,0-4.7-0.7-6.1-2c-1.5-1.3-2.2-3.2-2.2-5.5c0-2.3,0.9-4.1,2.6-5.4s4.4-1.9,8-1.9h4.9v-2.4
		c0-1.8-0.5-3.1-1.4-4s-2.4-1.4-4.4-1.4c-1.5,0-2.8,0.3-3.8,1c-1,0.7-1.8,1.6-2.5,2.7l-2.3-2.2c0.7-1.3,1.7-2.5,3.2-3.4
		c1.5-0.9,3.3-1.4,5.6-1.4c3,0,5.3,0.7,7,2.2c1.7,1.5,2.5,3.5,2.5,6.1v13.6h2.8v3.4H1224.1z M1213,331.8c1,0,1.8-0.1,2.6-0.3
		c0.8-0.2,1.5-0.5,2.1-1c0.6-0.4,1-0.9,1.3-1.4c0.3-0.5,0.5-1.1,0.5-1.8v-4.1h-5.1c-2.2,0-3.8,0.3-4.8,1c-1,0.6-1.5,1.6-1.5,2.8v1
		c0,1.2,0.4,2.2,1.3,2.8S1211.5,331.8,1213,331.8z"/>
	<path class="st2" d="M1231.7,334.5v-24.8h3.8v4h0.2c0.3-0.6,0.6-1.2,1-1.8s0.8-1,1.3-1.5c0.5-0.4,1.1-0.7,1.8-1
		c0.7-0.2,1.5-0.4,2.5-0.4c1.6,0,3.1,0.4,4.5,1.2c1.4,0.8,2.4,2.1,3.1,3.8h0.1c0.4-1.3,1.3-2.5,2.5-3.5c1.2-1,2.9-1.5,5-1.5
		c2.5,0,4.5,0.8,5.9,2.5c1.4,1.6,2.1,4,2.1,7v15.9h-3.8v-15.2c0-2.2-0.4-3.9-1.3-5c-0.9-1.1-2.2-1.7-4.1-1.7c-0.8,0-1.5,0.1-2.2,0.3
		c-0.7,0.2-1.3,0.5-1.8,0.9s-1,0.9-1.3,1.5c-0.3,0.6-0.5,1.3-0.5,2.1v17.2h-3.8v-15.2c0-2.2-0.4-3.9-1.3-5c-0.9-1.1-2.2-1.7-4-1.7
		c-0.8,0-1.5,0.1-2.2,0.3c-0.7,0.2-1.3,0.5-1.9,0.9c-0.5,0.4-1,0.9-1.3,1.5c-0.3,0.6-0.5,1.3-0.5,2.1v17.2H1231.7z"/>
	<path class="st2" d="M1273.6,334.5v-24.8h3.8v4h0.2c0.3-0.6,0.6-1.2,1-1.8s0.8-1,1.3-1.5c0.5-0.4,1.1-0.7,1.8-1
		c0.7-0.2,1.5-0.4,2.5-0.4c1.6,0,3.1,0.4,4.5,1.2c1.4,0.8,2.4,2.1,3.1,3.8h0.1c0.4-1.3,1.3-2.5,2.5-3.5c1.2-1,2.9-1.5,5-1.5
		c2.5,0,4.5,0.8,5.9,2.5c1.4,1.6,2.1,4,2.1,7v15.9h-3.8v-15.2c0-2.2-0.4-3.9-1.3-5c-0.9-1.1-2.2-1.7-4.1-1.7c-0.8,0-1.5,0.1-2.2,0.3
		c-0.7,0.2-1.3,0.5-1.8,0.9s-1,0.9-1.3,1.5c-0.3,0.6-0.5,1.3-0.5,2.1v17.2h-3.8v-15.2c0-2.2-0.4-3.9-1.3-5c-0.9-1.1-2.2-1.7-4-1.7
		c-0.8,0-1.5,0.1-2.2,0.3c-0.7,0.2-1.3,0.5-1.9,0.9c-0.5,0.4-1,0.9-1.3,1.5c-0.3,0.6-0.5,1.3-0.5,2.1v17.2H1273.6z"/>
	<path class="st2" d="M1317.4,303.9c-0.8,0-1.4-0.2-1.8-0.6c-0.4-0.4-0.6-0.9-0.6-1.6v-0.6c0-0.6,0.2-1.2,0.6-1.6
		c0.4-0.4,1-0.6,1.8-0.6s1.4,0.2,1.8,0.6c0.4,0.4,0.6,0.9,0.6,1.6v0.6c0,0.6-0.2,1.2-0.6,1.6S1318.3,303.9,1317.4,303.9z
		 M1315.5,309.7h3.8v24.8h-3.8V309.7z"/>
	<path class="st2" d="M1327.5,334.5v-24.8h3.8v4h0.2c0.6-1.4,1.5-2.5,2.6-3.3c1.1-0.8,2.6-1.2,4.4-1.2c2.6,0,4.6,0.8,6.1,2.5
		c1.5,1.6,2.2,4,2.2,7v15.9h-3.8v-15.2c0-4.5-1.9-6.7-5.6-6.7c-0.8,0-1.5,0.1-2.2,0.3c-0.7,0.2-1.4,0.5-1.9,0.9s-1,0.9-1.4,1.5
		c-0.3,0.6-0.5,1.3-0.5,2.1v17.2H1327.5z"/>
	<path class="st2" d="M1375.7,337.3c0,2.6-1,4.4-3,5.6c-2,1.2-5,1.8-9,1.8c-3.9,0-6.7-0.5-8.4-1.6c-1.7-1.1-2.5-2.6-2.5-4.5
		c0-1.3,0.4-2.4,1.1-3.1c0.7-0.8,1.7-1.3,2.9-1.7v-0.5c-1.5-0.7-2.2-1.8-2.2-3.4c0-1.2,0.4-2.2,1.2-2.8c0.8-0.7,1.8-1.1,3.1-1.5
		v-0.2c-1.5-0.7-2.6-1.7-3.4-3c-0.8-1.3-1.2-2.8-1.2-4.6c0-1.3,0.2-2.4,0.7-3.5c0.4-1.1,1.1-2,1.9-2.7c0.8-0.8,1.8-1.3,2.9-1.8
		c1.1-0.4,2.4-0.6,3.8-0.6c1.8,0,3.3,0.3,4.7,1v-0.4c0-1,0.2-1.8,0.7-2.4s1.2-1,2.2-1h3.7v3.4h-4.7v1.6c0.9,0.8,1.6,1.7,2.1,2.8
		s0.7,2.3,0.7,3.6c0,1.3-0.2,2.4-0.7,3.5c-0.4,1.1-1.1,2-1.9,2.7c-0.8,0.8-1.8,1.3-3,1.8c-1.2,0.4-2.4,0.6-3.8,0.6
		c-0.8,0-1.6-0.1-2.4-0.2c-0.8,0.2-1.6,0.6-2.3,1c-0.7,0.4-1,1-1,1.8c0,0.7,0.4,1.2,1.1,1.5c0.7,0.3,1.6,0.4,2.7,0.4h5.3
		c3.1,0,5.3,0.6,6.7,1.7S1375.7,335.2,1375.7,337.3z M1372.1,337.5c0-1-0.4-1.8-1.1-2.4c-0.8-0.6-2.1-0.9-4-0.9h-8.3
		c-1.5,0.7-2.3,1.8-2.3,3.4c0,1.1,0.4,2,1.2,2.8c0.8,0.8,2.2,1.2,4.2,1.2h3.6c2.1,0,3.8-0.3,5-1
		C1371.5,339.9,1372.1,338.9,1372.1,337.5z M1363.5,323.2c1.6,0,2.9-0.4,3.9-1.2c1-0.8,1.4-2,1.4-3.6V317c0-1.6-0.5-2.9-1.4-3.6
		s-2.3-1.2-3.9-1.2c-1.6,0-2.9,0.4-3.9,1.2s-1.4,2-1.4,3.6v1.4c0,1.6,0.5,2.9,1.4,3.6C1360.5,322.8,1361.8,323.2,1363.5,323.2z"/>
	<path class="st2" d="M1395.9,334.5h-4V301h13.3c2.9,0,5.2,0.8,6.9,2.4c1.6,1.6,2.5,4,2.5,7.1c0,2.5-0.6,4.5-1.7,6.1s-2.8,2.6-5,3.1
		l7.7,14.8h-4.6l-7.2-14.4h-7.8V334.5z M1405.2,316.6c1.6,0,2.8-0.4,3.7-1.2c0.9-0.8,1.3-2,1.3-3.6v-2.5c0-1.5-0.4-2.7-1.3-3.6
		c-0.9-0.8-2.1-1.2-3.7-1.2h-9.3v12.1H1405.2z"/>
	<path class="st2" d="M1430.8,335.1c-1.7,0-3.2-0.3-4.6-0.9s-2.5-1.5-3.5-2.6c-1-1.1-1.7-2.5-2.3-4.1s-0.8-3.4-0.8-5.4
		c0-2,0.3-3.7,0.8-5.3c0.5-1.6,1.3-3,2.3-4.1c1-1.1,2.1-2,3.5-2.6s2.9-0.9,4.6-0.9c1.7,0,3.2,0.3,4.5,0.9c1.3,0.6,2.4,1.4,3.4,2.5
		c0.9,1.1,1.6,2.3,2.1,3.8c0.5,1.5,0.7,3.1,0.7,4.8v1.8h-17.8v1.2c0,1.1,0.2,2,0.5,3s0.8,1.7,1.4,2.4s1.4,1.2,2.3,1.6
		s1.9,0.6,3.1,0.6c1.6,0,2.9-0.4,4.1-1.1c1.2-0.7,2.1-1.8,2.7-3.2l2.7,2c-0.8,1.7-2,3.1-3.7,4.1
		C1435.1,334.5,1433.1,335.1,1430.8,335.1z M1430.8,312.4c-1.1,0-2,0.2-2.9,0.5c-0.9,0.4-1.6,0.9-2.2,1.6c-0.6,0.7-1.1,1.5-1.5,2.4
		c-0.4,0.9-0.5,1.9-0.5,3v0.3h13.7v-0.5c0-2.2-0.6-4-1.8-5.3C1434.3,313,1432.8,312.4,1430.8,312.4z"/>
	<path class="st2" d="M1455.2,335.1c-2.3,0-4.2-0.4-5.8-1.3c-1.6-0.9-2.9-2.1-4-3.5l2.7-2.2c1,1.2,2,2.2,3.2,2.8
		c1.2,0.7,2.6,1,4.1,1c1.6,0,2.9-0.4,3.8-1.1c0.9-0.7,1.4-1.7,1.4-3c0-1-0.3-1.8-0.9-2.5c-0.6-0.7-1.8-1.2-3.4-1.4l-2-0.3
		c-1.2-0.2-2.2-0.4-3.2-0.7s-1.8-0.8-2.5-1.3c-0.7-0.6-1.3-1.3-1.7-2.1c-0.4-0.8-0.6-1.8-0.6-3c0-1.2,0.2-2.3,0.7-3.2
		c0.4-0.9,1.1-1.7,1.8-2.3c0.8-0.6,1.7-1.1,2.8-1.4c1.1-0.3,2.3-0.5,3.5-0.5c2,0,3.7,0.4,5.1,1.1c1.4,0.7,2.6,1.7,3.6,2.9l-2.5,2.3
		c-0.5-0.8-1.3-1.5-2.4-2.1c-1.1-0.6-2.4-0.9-4-0.9c-1.6,0-2.8,0.3-3.6,1c-0.8,0.7-1.2,1.6-1.2,2.8c0,1.2,0.4,2.1,1.2,2.6
		c0.8,0.5,2,0.9,3.5,1.2l1.9,0.3c2.8,0.4,4.7,1.2,5.9,2.4c1.2,1.2,1.7,2.7,1.7,4.6c0,2.4-0.8,4.3-2.4,5.7
		C1460.3,334.4,1458.1,335.1,1455.2,335.1z"/>
	<path class="st2" d="M1480.5,335.1c-1.7,0-3.2-0.3-4.6-0.9s-2.6-1.5-3.5-2.6c-1-1.1-1.7-2.5-2.3-4.1c-0.5-1.6-0.8-3.4-0.8-5.4
		c0-2,0.3-3.7,0.8-5.3c0.5-1.6,1.3-3,2.3-4.1c1-1.1,2.2-2,3.5-2.6s2.9-0.9,4.6-0.9c1.7,0,3.2,0.3,4.5,0.9s2.5,1.5,3.5,2.6
		c1,1.1,1.8,2.5,2.3,4.1c0.5,1.6,0.8,3.4,0.8,5.3c0,2-0.3,3.8-0.8,5.4s-1.3,2.9-2.3,4.1c-1,1.1-2.2,2-3.5,2.6
		S1482.2,335.1,1480.5,335.1z M1480.5,331.7c2.1,0,3.8-0.6,5.1-1.9c1.3-1.3,2-3.2,2-5.9v-3.6c0-2.6-0.7-4.6-2-5.9
		c-1.3-1.3-3-1.9-5.1-1.9c-2.1,0-3.8,0.6-5.1,1.9s-2,3.2-2,5.9v3.6c0,2.6,0.7,4.6,2,5.9C1476.8,331,1478.5,331.7,1480.5,331.7z"/>
	<path class="st2" d="M1513.3,330.5h-0.2c-0.3,0.6-0.6,1.1-0.9,1.7c-0.4,0.6-0.8,1-1.4,1.5c-0.5,0.4-1.2,0.8-2,1
		c-0.8,0.3-1.7,0.4-2.7,0.4c-2.6,0-4.6-0.8-6.1-2.5c-1.5-1.6-2.3-4-2.3-7v-15.9h3.8V325c0,4.5,1.9,6.7,5.7,6.7
		c0.8,0,1.5-0.1,2.2-0.3c0.7-0.2,1.4-0.5,1.9-0.9c0.6-0.4,1-0.9,1.3-1.5c0.3-0.6,0.5-1.3,0.5-2.1v-17.2h3.8v24.8h-3.8V330.5z"/>
	<path class="st2" d="M1525.3,334.5v-24.8h3.8v4.6h0.2c0.4-1.2,1.2-2.2,2.4-3.2c1.2-0.9,2.7-1.4,4.8-1.4h1.5v3.8h-2.3
		c-2.1,0-3.7,0.4-4.9,1.2s-1.8,1.8-1.8,3v16.8H1525.3z"/>
	<path class="st2" d="M1551.9,335.1c-1.7,0-3.3-0.3-4.7-0.9s-2.5-1.5-3.5-2.6c-0.9-1.1-1.7-2.5-2.2-4.1c-0.5-1.6-0.7-3.4-0.7-5.4
		s0.2-3.8,0.7-5.4c0.5-1.6,1.2-3,2.2-4.1c0.9-1.1,2.1-2,3.5-2.6s2.9-0.9,4.7-0.9c2.5,0,4.4,0.5,5.9,1.6c1.5,1.1,2.6,2.5,3.3,4.2
		l-3.2,1.6c-0.4-1.3-1.2-2.3-2.2-3s-2.3-1.1-3.8-1.1c-1.2,0-2.2,0.2-3,0.6c-0.9,0.4-1.6,0.9-2.2,1.5s-1,1.4-1.3,2.4
		c-0.3,0.9-0.4,1.9-0.4,3v4.2c0,2.2,0.6,4,1.8,5.4s2.9,2.1,5.2,2.1c3.1,0,5.3-1.4,6.7-4.3l2.8,1.9c-0.8,1.8-2,3.2-3.6,4.3
		C1556.3,334.5,1554.3,335.1,1551.9,335.1z"/>
	<path class="st2" d="M1575.9,335.1c-1.7,0-3.2-0.3-4.6-0.9s-2.5-1.5-3.5-2.6c-1-1.1-1.7-2.5-2.3-4.1s-0.8-3.4-0.8-5.4
		c0-2,0.3-3.7,0.8-5.3c0.5-1.6,1.3-3,2.3-4.1c1-1.1,2.1-2,3.5-2.6s2.9-0.9,4.6-0.9c1.7,0,3.2,0.3,4.5,0.9c1.3,0.6,2.4,1.4,3.4,2.5
		c0.9,1.1,1.6,2.3,2.1,3.8c0.5,1.5,0.7,3.1,0.7,4.8v1.8h-17.8v1.2c0,1.1,0.2,2,0.5,3s0.8,1.7,1.4,2.4s1.4,1.2,2.3,1.6
		s1.9,0.6,3.1,0.6c1.6,0,2.9-0.4,4.1-1.1c1.2-0.7,2.1-1.8,2.7-3.2l2.7,2c-0.8,1.7-2,3.1-3.7,4.1
		C1580.2,334.5,1578.2,335.1,1575.9,335.1z M1575.9,312.4c-1.1,0-2,0.2-2.9,0.5c-0.9,0.4-1.6,0.9-2.2,1.6c-0.6,0.7-1.1,1.5-1.5,2.4
		c-0.4,0.9-0.5,1.9-0.5,3v0.3h13.7v-0.5c0-2.2-0.6-4-1.8-5.3C1579.5,313,1577.9,312.4,1575.9,312.4z"/>
	<path class="st2" d="M1600.4,335.1c-2.3,0-4.2-0.4-5.8-1.3c-1.6-0.9-2.9-2.1-4-3.5l2.7-2.2c1,1.2,2,2.2,3.2,2.8
		c1.2,0.7,2.6,1,4.1,1c1.6,0,2.9-0.4,3.8-1.1c0.9-0.7,1.4-1.7,1.4-3c0-1-0.3-1.8-0.9-2.5c-0.6-0.7-1.8-1.2-3.4-1.4l-2-0.3
		c-1.2-0.2-2.2-0.4-3.2-0.7s-1.8-0.8-2.5-1.3c-0.7-0.6-1.3-1.3-1.7-2.1c-0.4-0.8-0.6-1.8-0.6-3c0-1.2,0.2-2.3,0.7-3.2
		c0.4-0.9,1.1-1.7,1.8-2.3c0.8-0.6,1.7-1.1,2.8-1.4c1.1-0.3,2.3-0.5,3.5-0.5c2,0,3.7,0.4,5.1,1.1c1.4,0.7,2.6,1.7,3.6,2.9l-2.5,2.3
		c-0.5-0.8-1.3-1.5-2.4-2.1c-1.1-0.6-2.4-0.9-4-0.9c-1.6,0-2.8,0.3-3.6,1c-0.8,0.7-1.2,1.6-1.2,2.8c0,1.2,0.4,2.1,1.2,2.6
		c0.8,0.5,2,0.9,3.5,1.2l1.9,0.3c2.8,0.4,4.7,1.2,5.9,2.4c1.2,1.2,1.7,2.7,1.7,4.6c0,2.4-0.8,4.3-2.4,5.7
		C1605.4,334.4,1603.2,335.1,1600.4,335.1z"/>
</g>
</svg>
